solid mount_holder
facet normal 0.0 -0.8555690006142903 0.5176887918314097
  outer loop
    vertex 12.999999999999963 15.018508948896928 25.29745324629398
    vertex -1.6567303084968898e-14 14.646863241756785 24.683245345219635
    vertex 12.999999999999963 14.646863241756785 24.683245345219635
  endloop
endfacet
facet normal 0.0 -0.8555690006142903 0.5176887918314097
  outer loop
    vertex -1.6567303084968898e-14 14.646863241756785 24.683245345219635
    vertex 12.999999999999963 15.018508948896928 25.29745324629398
    vertex -1.6567303084968898e-14 15.018508948896928 25.29745324629398
  endloop
endfacet
facet normal 0.0 -0.960403912627759 0.27861142225201757
  outer loop
    vertex 12.999999999999963 15.218522433202555 25.986921507690948
    vertex -1.6567303084968898e-14 15.018508948896928 25.29745324629398
    vertex 12.999999999999963 15.018508948896928 25.29745324629398
  endloop
endfacet
facet normal 0.0 -0.960403912627759 0.27861142225201757
  outer loop
    vertex -1.6567303084968898e-14 15.018508948896928 25.29745324629398
    vertex 12.999999999999963 15.218522433202555 25.986921507690948
    vertex -1.6567303084968898e-14 15.218522433202555 25.986921507690948
  endloop
endfacet
facet normal -0.0 0.9604039126277547 -0.27861142225203206
  outer loop
    vertex -1.6567303084968898e-14 9.981491051103061 27.50617475370599
    vertex 12.999999999999963 9.781477566797422 26.816706492309024
    vertex -1.6567303084968898e-14 9.781477566797422 26.816706492309024
  endloop
endfacet
facet normal -0.0 0.9604039126277547 -0.27861142225203206
  outer loop
    vertex 12.999999999999963 9.781477566797422 26.816706492309024
    vertex -1.6567303084968898e-14 9.981491051103061 27.50617475370599
    vertex 12.999999999999963 9.981491051103061 27.50617475370599
  endloop
endfacet
facet normal 0.0 0.6924284751035821 -0.7214865257686579
  outer loop
    vertex 12.999999999999963 10.871087647449823 28.61747294210038
    vertex -1.6567303084968898e-14 10.353136758243203 28.120382654780336
    vertex -1.6567303084968898e-14 10.871087647449823 28.61747294210038
  endloop
endfacet
facet normal 0.0 0.6924284751035821 -0.7214865257686579
  outer loop
    vertex -1.6567303084968898e-14 10.353136758243203 28.120382654780336
    vertex 12.999999999999963 10.871087647449823 28.61747294210038
    vertex 12.999999999999963 10.353136758243203 28.120382654780336
  endloop
endfacet
facet normal -8.676819946301209e-16 -0.0 1.0
  outer loop
    vertex 51.999999999999986 -3.4192093600893255e-14 39.40181400000001
    vertex 38.999999999999964 24.999999999999964 39.401813999999995
    vertex 38.999999999999964 -3.4192093600893255e-14 39.401813999999995
  endloop
endfacet
facet normal -8.676819946301209e-16 -0.0 1.0
  outer loop
    vertex 38.999999999999964 24.999999999999964 39.401813999999995
    vertex 51.999999999999986 -3.4192093600893255e-14 39.40181400000001
    vertex 51.999999999999986 24.999999999999964 39.40181400000001
  endloop
endfacet
facet normal -0.0 -0.6924284751035821 0.7214865257686579
  outer loop
    vertex 12.999999999999963 14.128912352550165 24.18615505789959
    vertex -1.6567303084968898e-14 14.646863241756785 24.683245345219635
    vertex -1.6567303084968898e-14 14.128912352550165 24.18615505789959
  endloop
endfacet
facet normal -0.0 -0.6924284751035821 0.7214865257686579
  outer loop
    vertex -1.6567303084968898e-14 14.646863241756785 24.683245345219635
    vertex 12.999999999999963 14.128912352550165 24.18615505789959
    vertex 12.999999999999963 14.646863241756785 24.683245345219635
  endloop
endfacet
facet normal -0.0 -0.23891738685909902 0.9710398973556235
  outer loop
    vertex 12.999999999999963 12.802850006796522 23.668540893743796
    vertex -1.6567303084968898e-14 13.499953778422217 23.840058265934157
    vertex -1.6567303084968898e-14 12.802850006796522 23.668540893743796
  endloop
endfacet
facet normal -0.0 -0.23891738685909902 0.9710398973556235
  outer loop
    vertex -1.6567303084968898e-14 13.499953778422217 23.840058265934157
    vertex 12.999999999999963 12.802850006796522 23.668540893743796
    vertex 12.999999999999963 13.499953778422217 23.840058265934157
  endloop
endfacet
facet normal -0.0 0.7214865257686504 0.6924284751035898
  outer loop
    vertex -1.6567303084968898e-14 10.2843410578996 24.772901647449803
    vertex 12.999999999999963 10.781431345219644 24.254950758243194
    vertex -1.6567303084968898e-14 10.781431345219644 24.254950758243194
  endloop
endfacet
facet normal -0.0 0.7214865257686504 0.6924284751035898
  outer loop
    vertex 12.999999999999963 10.781431345219644 24.254950758243194
    vertex -1.6567303084968898e-14 10.2843410578996 24.772901647449803
    vertex 12.999999999999963 10.2843410578996 24.772901647449803
  endloop
endfacet
facet normal -0.0 0.9710398973556226 0.2389173868591027
  outer loop
    vertex -1.6567303084968898e-14 9.766726893743805 26.098963993203448
    vertex 12.999999999999963 9.938244265934165 25.401860221577763
    vertex -1.6567303084968898e-14 9.938244265934165 25.401860221577763
  endloop
endfacet
facet normal -0.0 0.9710398973556226 0.2389173868591027
  outer loop
    vertex 12.999999999999963 9.938244265934165 25.401860221577763
    vertex -1.6567303084968898e-14 9.766726893743805 26.098963993203448
    vertex 12.999999999999963 9.766726893743805 26.098963993203448
  endloop
endfacet
facet normal 0.0 0.4821000933067497 -0.8761161452876117
  outer loop
    vertex 12.999999999999963 11.50004622157777 28.963569734065814
    vertex -1.6567303084968898e-14 10.871087647449823 28.61747294210038
    vertex -1.6567303084968898e-14 11.50004622157777 28.963569734065814
  endloop
endfacet
facet normal 0.0 0.4821000933067497 -0.8761161452876117
  outer loop
    vertex -1.6567303084968898e-14 10.871087647449823 28.61747294210038
    vertex 12.999999999999963 11.50004622157777 28.963569734065814
    vertex 12.999999999999963 10.871087647449823 28.61747294210038
  endloop
endfacet
facet normal 0.0 -0.9710398973556261 -0.23891738685908787
  outer loop
    vertex 12.999999999999963 15.061755734065823 27.401767778422208
    vertex -1.6567303084968898e-14 15.233273106256172 26.704664006796524
    vertex 12.999999999999963 15.233273106256172 26.704664006796524
  endloop
endfacet
facet normal 0.0 -0.9710398973556261 -0.23891738685908787
  outer loop
    vertex -1.6567303084968898e-14 15.233273106256172 26.704664006796524
    vertex 12.999999999999963 15.061755734065823 27.401767778422208
    vertex -1.6567303084968898e-14 15.061755734065823 27.401767778422208
  endloop
endfacet
facet normal 0.0 0.23891738685909902 -0.9710398973556235
  outer loop
    vertex 12.999999999999963 12.197149993203467 29.135087106256176
    vertex -1.6567303084968898e-14 11.50004622157777 28.963569734065814
    vertex -1.6567303084968898e-14 12.197149993203467 29.135087106256176
  endloop
endfacet
facet normal 0.0 0.23891738685909902 -0.9710398973556235
  outer loop
    vertex -1.6567303084968898e-14 11.50004622157777 28.963569734065814
    vertex 12.999999999999963 12.197149993203467 29.135087106256176
    vertex 12.999999999999963 11.50004622157777 28.963569734065814
  endloop
endfacet
facet normal -0.0 0.8761161452876153 0.48210009330674297
  outer loop
    vertex -1.6567303084968898e-14 9.938244265934165 25.401860221577763
    vertex 12.999999999999963 10.2843410578996 24.772901647449803
    vertex -1.6567303084968898e-14 10.2843410578996 24.772901647449803
  endloop
endfacet
facet normal -0.0 0.8761161452876153 0.48210009330674297
  outer loop
    vertex 12.999999999999963 10.2843410578996 24.772901647449803
    vertex -1.6567303084968898e-14 9.938244265934165 25.401860221577763
    vertex 12.999999999999963 9.938244265934165 25.401860221577763
  endloop
endfacet
facet normal -0.0 0.8555690006142903 -0.5176887918314097
  outer loop
    vertex -1.6567303084968898e-14 10.353136758243203 28.120382654780336
    vertex 12.999999999999963 9.981491051103061 27.50617475370599
    vertex -1.6567303084968898e-14 9.981491051103061 27.50617475370599
  endloop
endfacet
facet normal -0.0 0.8555690006142903 -0.5176887918314097
  outer loop
    vertex 12.999999999999963 9.981491051103061 27.50617475370599
    vertex -1.6567303084968898e-14 10.353136758243203 28.120382654780336
    vertex 12.999999999999963 10.353136758243203 28.120382654780336
  endloop
endfacet
facet normal 0.0 -0.5176887918314027 -0.8555690006142945
  outer loop
    vertex 12.999999999999963 14.218568654780354 28.548677241756778
    vertex -1.6567303084968898e-14 13.604360753706 28.92032294889692
    vertex -1.6567303084968898e-14 14.218568654780354 28.548677241756778
  endloop
endfacet
facet normal 0.0 -0.5176887918314027 -0.8555690006142945
  outer loop
    vertex -1.6567303084968898e-14 13.604360753706 28.92032294889692
    vertex 12.999999999999963 14.218568654780354 28.548677241756778
    vertex 12.999999999999963 13.604360753706 28.92032294889692
  endloop
endfacet
facet normal -0.0 -0.4821000933067497 0.8761161452876117
  outer loop
    vertex 12.999999999999963 13.499953778422217 23.840058265934157
    vertex -1.6567303084968898e-14 14.128912352550165 24.18615505789959
    vertex -1.6567303084968898e-14 13.499953778422217 23.840058265934157
  endloop
endfacet
facet normal -0.0 -0.4821000933067497 0.8761161452876117
  outer loop
    vertex -1.6567303084968898e-14 14.128912352550165 24.18615505789959
    vertex 12.999999999999963 13.499953778422217 23.840058265934157
    vertex 12.999999999999963 14.128912352550165 24.18615505789959
  endloop
endfacet
facet normal 0.0 -0.9997888851381445 0.020547144673320944
  outer loop
    vertex 12.999999999999963 15.233273106256172 26.704664006796524
    vertex -1.6567303084968898e-14 15.218522433202555 25.986921507690948
    vertex 12.999999999999963 15.218522433202555 25.986921507690948
  endloop
endfacet
facet normal 0.0 -0.9997888851381445 0.020547144673320944
  outer loop
    vertex -1.6567303084968898e-14 15.218522433202555 25.986921507690948
    vertex 12.999999999999963 15.233273106256172 26.704664006796524
    vertex -1.6567303084968898e-14 15.233273106256172 26.704664006796524
  endloop
endfacet
facet normal 0.0 -0.27861142225203206 -0.9604039126277547
  outer loop
    vertex 12.999999999999963 13.604360753706 28.92032294889692
    vertex -1.6567303084968898e-14 12.914892492309033 29.120336433202556
    vertex -1.6567303084968898e-14 13.604360753706 28.92032294889692
  endloop
endfacet
facet normal 0.0 -0.27861142225203206 -0.9604039126277547
  outer loop
    vertex -1.6567303084968898e-14 12.914892492309033 29.120336433202556
    vertex 12.999999999999963 13.604360753706 28.92032294889692
    vertex 12.999999999999963 12.914892492309033 29.120336433202556
  endloop
endfacet
facet normal 8.880182913792658e-16 -9.86988268891764e-17 -1.0
  outer loop
    vertex -3.1724622928663847e-15 24.99999999999999 3.524958103184872e-16
    vertex 25.09999999999997 14.058845726811962 3.489708522153023e-14
    vertex 0.0 0.0 0.0
  endloop
endfacet
facet normal 8.880182913792658e-16 -9.86988268891764e-17 -1.0
  outer loop
    vertex 25.09999999999997 14.058845726811962 3.489708522153023e-14
    vertex -3.1724622928663847e-15 24.99999999999999 3.524958103184872e-16
    vertex 25.534125718815424 14.238666487320296 3.489708522153023e-14
  endloop
endfacet
facet normal 8.880182913792658e-16 -9.86988268891764e-17 -1.0
  outer loop
    vertex 25.534125718815424 14.238666487320296 3.489708522153023e-14
    vertex -3.1724622928663847e-15 24.99999999999999 3.524958103184872e-16
    vertex 52.00000000000001 24.999999999999964 4.370948047949241e-14
  endloop
endfacet
facet normal 8.880182913792658e-16 -9.86988268891764e-17 -1.0
  outer loop
    vertex 0.0 0.0 0.0
    vertex 25.09999999999997 14.058845726811962 3.489708522153023e-14
    vertex 24.72720779386418 13.772792206135758 3.489708522153023e-14
  endloop
endfacet
facet normal 8.880182913792658e-16 -9.86988268891764e-17 -1.0
  outer loop
    vertex 0.0 0.0 0.0
    vertex 24.72720779386418 13.772792206135758 3.489708522153023e-14
    vertex 24.44115427318798 13.399999999999972 3.489708522153023e-14
  endloop
endfacet
facet normal 8.880182913792658e-16 -9.86988268891764e-17 -1.0
  outer loop
    vertex 0.0 0.0 0.0
    vertex 24.44115427318798 13.399999999999972 3.489708522153023e-14
    vertex 24.261333512679645 12.96587428118451 3.489708522153023e-14
  endloop
endfacet
facet normal 8.880182913792658e-16 -9.86988268891764e-17 -1.0
  outer loop
    vertex 0.0 0.0 0.0
    vertex 24.261333512679645 12.96587428118451 3.489708522153023e-14
    vertex 24.19999999999997 12.499999999999972 3.489708522153023e-14
  endloop
endfacet
facet normal 8.880182913792658e-16 -9.86988268891764e-17 -1.0
  outer loop
    vertex 25.534125718815424 14.238666487320296 3.489708522153023e-14
    vertex 52.00000000000001 24.999999999999964 4.370948047949241e-14
    vertex 25.999999999999964 14.299999999999974 3.489708522153023e-14
  endloop
endfacet
facet normal 8.880182913792658e-16 -9.86988268891764e-17 -1.0
  outer loop
    vertex 25.999999999999964 14.299999999999974 3.489708522153023e-14
    vertex 52.00000000000001 24.999999999999964 4.370948047949241e-14
    vertex 26.4658742811845 14.238666487320296 3.489708522153023e-14
  endloop
endfacet
facet normal 8.880182913792658e-16 -9.86988268891764e-17 -1.0
  outer loop
    vertex 26.4658742811845 14.238666487320296 3.489708522153023e-14
    vertex 52.00000000000001 24.999999999999964 4.370948047949241e-14
    vertex 26.899999999999963 14.058845726811967 3.489708522153023e-14
  endloop
endfacet
facet normal 8.880182913792658e-16 -9.86988268891764e-17 -1.0
  outer loop
    vertex 26.899999999999963 14.058845726811967 3.489708522153023e-14
    vertex 52.00000000000001 24.999999999999964 4.370948047949241e-14
    vertex 27.272792206135748 13.772792206135762 3.489708522153023e-14
  endloop
endfacet
facet normal 8.880182913792658e-16 -9.86988268891764e-17 -1.0
  outer loop
    vertex 27.272792206135748 13.772792206135762 3.489708522153023e-14
    vertex 52.00000000000001 24.999999999999964 4.370948047949241e-14
    vertex 27.55884572681195 13.399999999999975 3.489708522153023e-14
  endloop
endfacet
facet normal 8.880182913792658e-16 -9.86988268891764e-17 -1.0
  outer loop
    vertex 27.55884572681195 13.399999999999975 3.489708522153023e-14
    vertex 52.00000000000001 24.999999999999964 4.370948047949241e-14
    vertex 27.738666487320288 12.965874281184513 3.489708522153023e-14
  endloop
endfacet
facet normal 8.880182913792658e-16 -9.86988268891764e-17 -1.0
  outer loop
    vertex 27.738666487320288 12.965874281184513 3.489708522153023e-14
    vertex 52.00000000000001 24.999999999999964 4.370948047949241e-14
    vertex 27.799999999999972 12.499999999999977 3.489708522153023e-14
  endloop
endfacet
facet normal 8.880182913792658e-16 -9.86988268891764e-17 -1.0
  outer loop
    vertex 0.0 0.0 0.0
    vertex 25.534125718815435 10.761333512679652 3.489708522153023e-14
    vertex 52.00000000000001 -3.3839597790574766e-14 4.899691763426972e-14
  endloop
endfacet
facet normal 8.880182913792658e-16 -9.86988268891764e-17 -1.0
  outer loop
    vertex 25.534125718815435 10.761333512679652 3.489708522153023e-14
    vertex 0.0 0.0 0.0
    vertex 25.09999999999997 10.941154273187985 3.489708522153023e-14
  endloop
endfacet
facet normal 8.880182913792658e-16 -9.86988268891764e-17 -1.0
  outer loop
    vertex 25.09999999999997 10.941154273187985 3.489708522153023e-14
    vertex 0.0 0.0 0.0
    vertex 24.72720779386418 11.227207793864187 3.489708522153023e-14
  endloop
endfacet
facet normal 8.880182913792658e-16 -9.86988268891764e-17 -1.0
  outer loop
    vertex 24.72720779386418 11.227207793864187 3.489708522153023e-14
    vertex 0.0 0.0 0.0
    vertex 24.44115427318798 11.599999999999973 3.489708522153023e-14
  endloop
endfacet
facet normal 8.880182913792658e-16 -9.86988268891764e-17 -1.0
  outer loop
    vertex 24.44115427318798 11.599999999999973 3.489708522153023e-14
    vertex 0.0 0.0 0.0
    vertex 24.261333512679645 12.034125718815435 3.489708522153023e-14
  endloop
endfacet
facet normal 8.880182913792658e-16 -9.86988268891764e-17 -1.0
  outer loop
    vertex 24.261333512679645 12.034125718815435 3.489708522153023e-14
    vertex 0.0 0.0 0.0
    vertex 24.19999999999997 12.499999999999972 3.489708522153023e-14
  endloop
endfacet
facet normal 8.880182913792658e-16 -9.86988268891764e-17 -1.0
  outer loop
    vertex 52.00000000000001 -3.3839597790574766e-14 4.899691763426972e-14
    vertex 25.534125718815435 10.761333512679652 3.489708522153023e-14
    vertex 25.999999999999964 10.699999999999974 3.489708522153023e-14
  endloop
endfacet
facet normal 8.880182913792658e-16 -9.86988268891764e-17 -1.0
  outer loop
    vertex 52.00000000000001 -3.3839597790574766e-14 4.899691763426972e-14
    vertex 25.999999999999964 10.699999999999974 3.489708522153023e-14
    vertex 26.4658742811845 10.761333512679652 3.489708522153023e-14
  endloop
endfacet
facet normal 8.880182913792658e-16 -9.86988268891764e-17 -1.0
  outer loop
    vertex 52.00000000000001 -3.3839597790574766e-14 4.899691763426972e-14
    vertex 26.4658742811845 10.761333512679652 3.489708522153023e-14
    vertex 26.899999999999974 10.941154273187985 3.489708522153023e-14
  endloop
endfacet
facet normal 8.880182913792658e-16 -9.86988268891764e-17 -1.0
  outer loop
    vertex 52.00000000000001 -3.3839597790574766e-14 4.899691763426972e-14
    vertex 26.899999999999974 10.941154273187985 3.489708522153023e-14
    vertex 27.272792206135758 11.22720779386419 3.489708522153023e-14
  endloop
endfacet
facet normal 8.880182913792658e-16 -9.86988268891764e-17 -1.0
  outer loop
    vertex 52.00000000000001 -3.3839597790574766e-14 4.899691763426972e-14
    vertex 27.272792206135758 11.22720779386419 3.489708522153023e-14
    vertex 27.558845726811963 11.599999999999977 3.489708522153023e-14
  endloop
endfacet
facet normal 8.880182913792658e-16 -9.86988268891764e-17 -1.0
  outer loop
    vertex 52.00000000000001 -3.3839597790574766e-14 4.899691763426972e-14
    vertex 27.558845726811963 11.599999999999977 3.489708522153023e-14
    vertex 27.738666487320288 12.034125718815439 3.489708522153023e-14
  endloop
endfacet
facet normal 8.880182913792658e-16 -9.86988268891764e-17 -1.0
  outer loop
    vertex 52.00000000000001 -3.3839597790574766e-14 4.899691763426972e-14
    vertex 27.738666487320288 12.034125718815439 3.489708522153023e-14
    vertex 27.799999999999972 12.499999999999977 3.489708522153023e-14
  endloop
endfacet
facet normal 8.880182913792658e-16 -9.86988268891764e-17 -1.0
  outer loop
    vertex 52.00000000000001 -3.3839597790574766e-14 4.899691763426972e-14
    vertex 27.799999999999972 12.499999999999977 3.489708522153023e-14
    vertex 52.00000000000001 24.999999999999964 4.370948047949241e-14
  endloop
endfacet
facet normal 0.0 -0.8761161452876219 -0.482100093306731
  outer loop
    vertex 12.999999999999963 14.7156589421004 28.030726352550168
    vertex -1.6567303084968898e-14 15.061755734065823 27.401767778422208
    vertex 12.999999999999963 15.061755734065823 27.401767778422208
  endloop
endfacet
facet normal 0.0 -0.8761161452876219 -0.482100093306731
  outer loop
    vertex -1.6567303084968898e-14 15.061755734065823 27.401767778422208
    vertex 12.999999999999963 14.7156589421004 28.030726352550168
    vertex -1.6567303084968898e-14 14.7156589421004 28.030726352550168
  endloop
endfacet
facet normal -0.0 0.27861142225203206 0.9604039126277547
  outer loop
    vertex 12.999999999999963 11.395639246293989 23.883305051103054
    vertex -1.6567303084968898e-14 12.085107507690957 23.683291566797415
    vertex -1.6567303084968898e-14 11.395639246293989 23.883305051103054
  endloop
endfacet
facet normal -0.0 0.27861142225203206 0.9604039126277547
  outer loop
    vertex -1.6567303084968898e-14 12.085107507690957 23.683291566797415
    vertex 12.999999999999963 11.395639246293989 23.883305051103054
    vertex 12.999999999999963 12.085107507690957 23.683291566797415
  endloop
endfacet
facet normal -1.1930627426164187e-15 1.127986593019158e-16 1.0
  outer loop
    vertex 12.999999999999988 -3.524958103184872e-16 13.401813999999998
    vertex 22.522667025359336 11.568251437630892 13.401814000000027
    vertex 22.399999999999984 12.499999999999966 13.401814000000027
  endloop
endfacet
facet normal -1.1930627426164187e-15 1.127986593019158e-16 1.0
  outer loop
    vertex 22.522667025359336 11.568251437630892 13.401814000000027
    vertex 12.999999999999988 -3.524958103184872e-16 13.401813999999998
    vertex 22.882308546376006 10.699999999999966 13.401814000000027
  endloop
endfacet
facet normal -1.1930627426164187e-15 1.127986593019158e-16 1.0
  outer loop
    vertex 22.882308546376006 10.699999999999966 13.401814000000027
    vertex 12.999999999999988 -3.524958103184872e-16 13.401813999999998
    vertex 23.454415587728416 9.954415587728395 13.40181400000003
  endloop
endfacet
facet normal -1.1930627426164187e-15 1.127986593019158e-16 1.0
  outer loop
    vertex 23.454415587728416 9.954415587728395 13.40181400000003
    vertex 12.999999999999988 -3.524958103184872e-16 13.401813999999998
    vertex 24.19999999999998 9.382308546375988 13.40181400000003
  endloop
endfacet
facet normal -1.1930627426164187e-15 1.127986593019158e-16 1.0
  outer loop
    vertex 24.19999999999998 9.382308546375988 13.40181400000003
    vertex 12.999999999999988 -3.524958103184872e-16 13.401813999999998
    vertex 38.99999999999997 -3.4192093600893255e-14 13.401814000000032
  endloop
endfacet
facet normal -1.1930627426164187e-15 1.127986593019158e-16 1.0
  outer loop
    vertex 24.19999999999998 9.382308546375988 13.40181400000003
    vertex 38.99999999999997 -3.4192093600893255e-14 13.401814000000032
    vertex 25.068251437630913 9.02266702535932 13.40181400000003
  endloop
endfacet
facet normal -1.1930627426164187e-15 1.127986593019158e-16 1.0
  outer loop
    vertex 25.068251437630913 9.02266702535932 13.40181400000003
    vertex 38.99999999999997 -3.4192093600893255e-14 13.401814000000032
    vertex 25.999999999999975 8.899999999999967 13.40181400000003
  endloop
endfacet
facet normal -1.1930627426164187e-15 1.127986593019158e-16 1.0
  outer loop
    vertex 25.999999999999975 8.899999999999967 13.40181400000003
    vertex 38.99999999999997 -3.4192093600893255e-14 13.401814000000032
    vertex 26.93174856236905 9.022667025359322 13.401814000000032
  endloop
endfacet
facet normal -1.1930627426164187e-15 1.127986593019158e-16 1.0
  outer loop
    vertex 26.93174856236905 9.022667025359322 13.401814000000032
    vertex 38.99999999999997 -3.4192093600893255e-14 13.401814000000032
    vertex 27.799999999999983 9.382308546375988 13.401814000000032
  endloop
endfacet
facet normal -1.1930627426164187e-15 1.127986593019158e-16 1.0
  outer loop
    vertex 27.799999999999983 9.382308546375988 13.401814000000032
    vertex 38.99999999999997 -3.4192093600893255e-14 13.401814000000032
    vertex 28.545584412271545 9.954415587728395 13.401814000000032
  endloop
endfacet
facet normal -1.1930627426164187e-15 1.127986593019158e-16 1.0
  outer loop
    vertex 28.545584412271545 9.954415587728395 13.401814000000032
    vertex 38.99999999999997 -3.4192093600893255e-14 13.401814000000032
    vertex 29.117691453623962 10.699999999999966 13.401814000000032
  endloop
endfacet
facet normal -1.1930627426164187e-15 1.127986593019158e-16 1.0
  outer loop
    vertex 29.117691453623962 10.699999999999966 13.401814000000032
    vertex 38.99999999999997 -3.4192093600893255e-14 13.401814000000032
    vertex 29.47733297464062 11.568251437630892 13.401814000000032
  endloop
endfacet
facet normal -1.1930627426164187e-15 1.127986593019158e-16 1.0
  outer loop
    vertex 29.47733297464062 11.568251437630892 13.401814000000032
    vertex 38.99999999999997 -3.4192093600893255e-14 13.401814000000032
    vertex 29.59999999999998 12.499999999999966 13.401814000000032
  endloop
endfacet
facet normal -1.1930627426164187e-15 1.127986593019158e-16 1.0
  outer loop
    vertex 12.999999999999984 24.99999999999999 13.401813999999998
    vertex 24.19999999999998 15.617691453623943 13.401814000000027
    vertex 38.99999999999997 24.999999999999964 13.401814000000027
  endloop
endfacet
facet normal -1.1930627426164187e-15 1.127986593019158e-16 1.0
  outer loop
    vertex 24.19999999999998 15.617691453623943 13.401814000000027
    vertex 12.999999999999984 24.99999999999999 13.401813999999998
    vertex 23.45441558772841 15.045584412271534 13.401814000000027
  endloop
endfacet
facet normal -1.1930627426164187e-15 1.127986593019158e-16 1.0
  outer loop
    vertex 23.45441558772841 15.045584412271534 13.401814000000027
    vertex 12.999999999999984 24.99999999999999 13.401813999999998
    vertex 22.882308546376002 14.299999999999965 13.401814000000027
  endloop
endfacet
facet normal -1.1930627426164187e-15 1.127986593019158e-16 1.0
  outer loop
    vertex 22.882308546376002 14.299999999999965 13.401814000000027
    vertex 12.999999999999984 24.99999999999999 13.401813999999998
    vertex 12.999999999999988 -3.524958103184872e-16 13.401813999999998
  endloop
endfacet
facet normal -1.1930627426164187e-15 1.127986593019158e-16 1.0
  outer loop
    vertex 22.882308546376002 14.299999999999965 13.401814000000027
    vertex 12.999999999999988 -3.524958103184872e-16 13.401813999999998
    vertex 22.522667025359336 13.431748562369037 13.401814000000027
  endloop
endfacet
facet normal -1.1930627426164187e-15 1.127986593019158e-16 1.0
  outer loop
    vertex 22.522667025359336 13.431748562369037 13.401814000000027
    vertex 12.999999999999988 -3.524958103184872e-16 13.401813999999998
    vertex 22.399999999999984 12.499999999999966 13.401814000000027
  endloop
endfacet
facet normal -1.1930627426164187e-15 1.127986593019158e-16 1.0
  outer loop
    vertex 38.99999999999997 24.999999999999964 13.401814000000027
    vertex 24.19999999999998 15.617691453623943 13.401814000000027
    vertex 25.0682514376309 15.977332974640612 13.401814000000027
  endloop
endfacet
facet normal -1.1930627426164187e-15 1.127986593019158e-16 1.0
  outer loop
    vertex 38.99999999999997 24.999999999999964 13.401814000000027
    vertex 25.0682514376309 15.977332974640612 13.401814000000027
    vertex 25.999999999999975 16.099999999999966 13.40181400000003
  endloop
endfacet
facet normal -1.1930627426164187e-15 1.127986593019158e-16 1.0
  outer loop
    vertex 38.99999999999997 24.999999999999964 13.401814000000027
    vertex 25.999999999999975 16.099999999999966 13.40181400000003
    vertex 26.93174856236905 15.977332974640612 13.40181400000003
  endloop
endfacet
facet normal -1.1930627426164187e-15 1.127986593019158e-16 1.0
  outer loop
    vertex 38.99999999999997 24.999999999999964 13.401814000000027
    vertex 26.93174856236905 15.977332974640612 13.40181400000003
    vertex 27.799999999999972 15.617691453623946 13.40181400000003
  endloop
endfacet
facet normal -1.1930627426164187e-15 1.127986593019158e-16 1.0
  outer loop
    vertex 38.99999999999997 24.999999999999964 13.401814000000027
    vertex 27.799999999999972 15.617691453623946 13.40181400000003
    vertex 28.545584412271545 15.045584412271538 13.40181400000003
  endloop
endfacet
facet normal -1.1930627426164187e-15 1.127986593019158e-16 1.0
  outer loop
    vertex 38.99999999999997 24.999999999999964 13.401814000000027
    vertex 28.545584412271545 15.045584412271538 13.40181400000003
    vertex 29.117691453623962 14.299999999999969 13.401814000000032
  endloop
endfacet
facet normal -1.1930627426164187e-15 1.127986593019158e-16 1.0
  outer loop
    vertex 38.99999999999997 24.999999999999964 13.401814000000027
    vertex 29.117691453623962 14.299999999999969 13.401814000000032
    vertex 29.47733297464062 13.431748562369043 13.401814000000032
  endloop
endfacet
facet normal -1.1930627426164187e-15 1.127986593019158e-16 1.0
  outer loop
    vertex 38.99999999999997 24.999999999999964 13.401814000000027
    vertex 29.47733297464062 13.431748562369043 13.401814000000032
    vertex 29.59999999999998 12.499999999999966 13.401814000000032
  endloop
endfacet
facet normal -1.1930627426164187e-15 1.127986593019158e-16 1.0
  outer loop
    vertex 38.99999999999997 24.999999999999964 13.401814000000027
    vertex 29.59999999999998 12.499999999999966 13.401814000000032
    vertex 38.99999999999997 -3.4192093600893255e-14 13.401814000000032
  endloop
endfacet
facet normal 0.0 -0.02054714467332127 -0.9997888851381445
  outer loop
    vertex 12.999999999999963 12.914892492309033 29.120336433202556
    vertex -1.6567303084968898e-14 12.197149993203467 29.135087106256176
    vertex -1.6567303084968898e-14 12.914892492309033 29.120336433202556
  endloop
endfacet
facet normal 0.0 -0.02054714467332127 -0.9997888851381445
  outer loop
    vertex -1.6567303084968898e-14 12.197149993203467 29.135087106256176
    vertex 12.999999999999963 12.914892492309033 29.120336433202556
    vertex 12.999999999999963 12.197149993203467 29.135087106256176
  endloop
endfacet
facet normal -9.110660943616285e-16 -1.0 1.520984027835226e-16
  outer loop
    vertex 52.00000000000001 -3.3839597790574766e-14 4.899691763426972e-14
    vertex 38.99999999999997 -3.4192093600893255e-14 13.401814000000032
    vertex 12.999999999999988 -3.524958103184872e-16 13.401813999999998
  endloop
endfacet
facet normal -9.110660943616285e-16 -1.0 1.520984027835226e-16
  outer loop
    vertex 38.99999999999997 -3.4192093600893255e-14 13.401814000000032
    vertex 52.00000000000001 -3.3839597790574766e-14 4.899691763426972e-14
    vertex 51.999999999999986 -3.4192093600893255e-14 39.40181400000001
  endloop
endfacet
facet normal -9.110660943616285e-16 -1.0 1.520984027835226e-16
  outer loop
    vertex 38.99999999999997 -3.4192093600893255e-14 13.401814000000032
    vertex 51.999999999999986 -3.4192093600893255e-14 39.40181400000001
    vertex 38.999999999999964 -3.4192093600893255e-14 39.401813999999995
  endloop
endfacet
facet normal -9.110660943616285e-16 -1.0 1.520984027835226e-16
  outer loop
    vertex 0.0 0.0 0.0
    vertex 12.999999999999988 -3.524958103184872e-16 13.401813999999998
    vertex -1.4452328223057973e-14 1.0927370119873103e-14 39.401813999999995
  endloop
endfacet
facet normal -9.110660943616285e-16 -1.0 1.520984027835226e-16
  outer loop
    vertex 12.999999999999988 -3.524958103184872e-16 13.401813999999998
    vertex 0.0 0.0 0.0
    vertex 52.00000000000001 -3.3839597790574766e-14 4.899691763426972e-14
  endloop
endfacet
facet normal -9.110660943616285e-16 -1.0 1.520984027835226e-16
  outer loop
    vertex -1.4452328223057973e-14 1.0927370119873103e-14 39.401813999999995
    vertex 12.999999999999988 -3.524958103184872e-16 13.401813999999998
    vertex 12.999999999999988 1.0927370119873103e-14 39.401813999999995
  endloop
endfacet
facet normal 5.206091967780733e-16 1.0 2.346876319136037e-31
  outer loop
    vertex -3.1724622928663847e-15 24.99999999999999 3.524958103184872e-16
    vertex 12.999999999999984 24.99999999999999 13.401813999999998
    vertex 52.00000000000001 24.999999999999964 4.370948047949241e-14
  endloop
endfacet
facet normal 5.206091967780733e-16 1.0 2.346876319136037e-31
  outer loop
    vertex 12.999999999999984 24.99999999999999 13.401813999999998
    vertex -3.1724622928663847e-15 24.99999999999999 3.524958103184872e-16
    vertex -1.762479051592436e-14 24.99999999999999 39.401813999999995
  endloop
endfacet
facet normal 5.206091967780733e-16 1.0 2.346876319136037e-31
  outer loop
    vertex 12.999999999999984 24.99999999999999 13.401813999999998
    vertex -1.762479051592436e-14 24.99999999999999 39.401813999999995
    vertex 12.999999999999984 24.99999999999999 39.401813999999995
  endloop
endfacet
facet normal 5.206091967780733e-16 1.0 2.346876319136037e-31
  outer loop
    vertex 52.00000000000001 24.999999999999964 4.370948047949241e-14
    vertex 38.99999999999997 24.999999999999964 13.401814000000027
    vertex 51.999999999999986 24.999999999999964 39.40181400000001
  endloop
endfacet
facet normal 5.206091967780733e-16 1.0 2.346876319136037e-31
  outer loop
    vertex 38.99999999999997 24.999999999999964 13.401814000000027
    vertex 52.00000000000001 24.999999999999964 4.370948047949241e-14
    vertex 12.999999999999984 24.99999999999999 13.401813999999998
  endloop
endfacet
facet normal 5.206091967780733e-16 1.0 2.346876319136037e-31
  outer loop
    vertex 51.999999999999986 24.999999999999964 39.40181400000001
    vertex 38.99999999999997 24.999999999999964 13.401814000000027
    vertex 38.999999999999964 24.999999999999964 39.401813999999995
  endloop
endfacet
facet normal -0.0 0.5176887918314097 0.8555690006142903
  outer loop
    vertex 12.999999999999963 10.781431345219644 24.254950758243194
    vertex -1.6567303084968898e-14 11.395639246293989 23.883305051103054
    vertex -1.6567303084968898e-14 10.781431345219644 24.254950758243194
  endloop
endfacet
facet normal -0.0 0.5176887918314097 0.8555690006142903
  outer loop
    vertex -1.6567303084968898e-14 11.395639246293989 23.883305051103054
    vertex 12.999999999999963 10.781431345219644 24.254950758243194
    vertex 12.999999999999963 11.395639246293989 23.883305051103054
  endloop
endfacet
facet normal -0.0 0.02054714467332127 0.9997888851381445
  outer loop
    vertex 12.999999999999963 12.085107507690957 23.683291566797415
    vertex -1.6567303084968898e-14 12.802850006796522 23.668540893743796
    vertex -1.6567303084968898e-14 12.085107507690957 23.683291566797415
  endloop
endfacet
facet normal -0.0 0.02054714467332127 0.9997888851381445
  outer loop
    vertex -1.6567303084968898e-14 12.802850006796522 23.668540893743796
    vertex 12.999999999999963 12.085107507690957 23.683291566797415
    vertex 12.999999999999963 12.802850006796522 23.668540893743796
  endloop
endfacet
facet normal -0.0 0.9997888851381445 -0.020547144673320944
  outer loop
    vertex -1.6567303084968898e-14 9.781477566797422 26.816706492309024
    vertex 12.999999999999963 9.766726893743805 26.098963993203448
    vertex -1.6567303084968898e-14 9.766726893743805 26.098963993203448
  endloop
endfacet
facet normal -0.0 0.9997888851381445 -0.020547144673320944
  outer loop
    vertex 12.999999999999963 9.766726893743805 26.098963993203448
    vertex -1.6567303084968898e-14 9.781477566797422 26.816706492309024
    vertex 12.999999999999963 9.781477566797422 26.816706492309024
  endloop
endfacet
facet normal 1.0 3.280842384808645e-32 5.725556661016471e-16
  outer loop
    vertex 52.00000000000001 -3.3839597790574766e-14 4.899691763426972e-14
    vertex 51.999999999999986 24.999999999999964 39.40181400000001
    vertex 51.999999999999986 -3.4192093600893255e-14 39.40181400000001
  endloop
endfacet
facet normal 1.0 3.280842384808645e-32 5.725556661016471e-16
  outer loop
    vertex 51.999999999999986 24.999999999999964 39.40181400000001
    vertex 52.00000000000001 -3.3839597790574766e-14 4.899691763426972e-14
    vertex 52.00000000000001 24.999999999999964 4.370948047949241e-14
  endloop
endfacet
facet normal -0.0 -0.0 1.0
  outer loop
    vertex -1.4452328223057973e-14 1.0927370119873103e-14 39.401813999999995
    vertex 12.999999999999984 24.99999999999999 39.401813999999995
    vertex -1.762479051592436e-14 24.99999999999999 39.401813999999995
  endloop
endfacet
facet normal -0.0 -0.0 1.0
  outer loop
    vertex 12.999999999999984 24.99999999999999 39.401813999999995
    vertex -1.4452328223057973e-14 1.0927370119873103e-14 39.401813999999995
    vertex 12.999999999999988 1.0927370119873103e-14 39.401813999999995
  endloop
endfacet
facet normal -1.0 -1.2689849171465544e-16 -3.667934735963673e-16
  outer loop
    vertex -1.4452328223057973e-14 1.0927370119873103e-14 39.401813999999995
    vertex -1.6567303084968898e-14 9.781477566797422 26.816706492309024
    vertex -1.6567303084968898e-14 9.766726893743805 26.098963993203448
  endloop
endfacet
facet normal -1.0 -1.2689849171465544e-16 -3.667934735963673e-16
  outer loop
    vertex -1.6567303084968898e-14 9.781477566797422 26.816706492309024
    vertex -1.4452328223057973e-14 1.0927370119873103e-14 39.401813999999995
    vertex -1.6567303084968898e-14 9.981491051103061 27.50617475370599
  endloop
endfacet
facet normal -1.0 -1.2689849171465544e-16 -3.667934735963673e-16
  outer loop
    vertex -1.6567303084968898e-14 9.981491051103061 27.50617475370599
    vertex -1.4452328223057973e-14 1.0927370119873103e-14 39.401813999999995
    vertex -1.6567303084968898e-14 10.353136758243203 28.120382654780336
  endloop
endfacet
facet normal -1.0 -1.2689849171465544e-16 -3.667934735963673e-16
  outer loop
    vertex -1.6567303084968898e-14 10.353136758243203 28.120382654780336
    vertex -1.4452328223057973e-14 1.0927370119873103e-14 39.401813999999995
    vertex -1.6567303084968898e-14 10.871087647449823 28.61747294210038
  endloop
endfacet
facet normal -1.0 -1.2689849171465544e-16 -3.667934735963673e-16
  outer loop
    vertex -1.6567303084968898e-14 10.871087647449823 28.61747294210038
    vertex -1.4452328223057973e-14 1.0927370119873103e-14 39.401813999999995
    vertex -1.762479051592436e-14 24.99999999999999 39.401813999999995
  endloop
endfacet
facet normal -1.0 -1.2689849171465544e-16 -3.667934735963673e-16
  outer loop
    vertex -1.6567303084968898e-14 10.871087647449823 28.61747294210038
    vertex -1.762479051592436e-14 24.99999999999999 39.401813999999995
    vertex -1.6567303084968898e-14 11.50004622157777 28.963569734065814
  endloop
endfacet
facet normal -1.0 -1.2689849171465544e-16 -3.667934735963673e-16
  outer loop
    vertex -1.6567303084968898e-14 11.50004622157777 28.963569734065814
    vertex -1.762479051592436e-14 24.99999999999999 39.401813999999995
    vertex -1.6567303084968898e-14 12.197149993203467 29.135087106256176
  endloop
endfacet
facet normal -1.0 -1.2689849171465544e-16 -3.667934735963673e-16
  outer loop
    vertex -1.6567303084968898e-14 12.197149993203467 29.135087106256176
    vertex -1.762479051592436e-14 24.99999999999999 39.401813999999995
    vertex -1.6567303084968898e-14 12.914892492309033 29.120336433202556
  endloop
endfacet
facet normal -1.0 -1.2689849171465544e-16 -3.667934735963673e-16
  outer loop
    vertex -1.6567303084968898e-14 12.914892492309033 29.120336433202556
    vertex -1.762479051592436e-14 24.99999999999999 39.401813999999995
    vertex -1.6567303084968898e-14 13.604360753706 28.92032294889692
  endloop
endfacet
facet normal -1.0 -1.2689849171465544e-16 -3.667934735963673e-16
  outer loop
    vertex -1.6567303084968898e-14 13.604360753706 28.92032294889692
    vertex -1.762479051592436e-14 24.99999999999999 39.401813999999995
    vertex -1.6567303084968898e-14 14.218568654780354 28.548677241756778
  endloop
endfacet
facet normal -1.0 -1.2689849171465544e-16 -3.667934735963673e-16
  outer loop
    vertex -1.6567303084968898e-14 14.218568654780354 28.548677241756778
    vertex -1.762479051592436e-14 24.99999999999999 39.401813999999995
    vertex -1.6567303084968898e-14 14.7156589421004 28.030726352550168
  endloop
endfacet
facet normal -1.0 -1.2689849171465544e-16 -3.667934735963673e-16
  outer loop
    vertex -1.6567303084968898e-14 14.7156589421004 28.030726352550168
    vertex -1.762479051592436e-14 24.99999999999999 39.401813999999995
    vertex -1.6567303084968898e-14 15.061755734065823 27.401767778422208
  endloop
endfacet
facet normal -1.0 -1.2689849171465544e-16 -3.667934735963673e-16
  outer loop
    vertex -1.6567303084968898e-14 15.061755734065823 27.401767778422208
    vertex -1.762479051592436e-14 24.99999999999999 39.401813999999995
    vertex -1.6567303084968898e-14 15.233273106256172 26.704664006796524
  endloop
endfacet
facet normal -1.0 -1.2689849171465544e-16 -3.667934735963673e-16
  outer loop
    vertex -1.4452328223057973e-14 1.0927370119873103e-14 39.401813999999995
    vertex -3.1724622928663847e-15 24.99999999999999 3.524958103184872e-16
    vertex 0.0 0.0 0.0
  endloop
endfacet
facet normal -1.0 -1.2689849171465544e-16 -3.667934735963673e-16
  outer loop
    vertex -3.1724622928663847e-15 24.99999999999999 3.524958103184872e-16
    vertex -1.4452328223057973e-14 1.0927370119873103e-14 39.401813999999995
    vertex -1.6567303084968898e-14 10.2843410578996 24.772901647449803
  endloop
endfacet
facet normal -1.0 -1.2689849171465544e-16 -3.667934735963673e-16
  outer loop
    vertex -1.6567303084968898e-14 10.2843410578996 24.772901647449803
    vertex -1.4452328223057973e-14 1.0927370119873103e-14 39.401813999999995
    vertex -1.6567303084968898e-14 9.938244265934165 25.401860221577763
  endloop
endfacet
facet normal -1.0 -1.2689849171465544e-16 -3.667934735963673e-16
  outer loop
    vertex -1.6567303084968898e-14 9.938244265934165 25.401860221577763
    vertex -1.4452328223057973e-14 1.0927370119873103e-14 39.401813999999995
    vertex -1.6567303084968898e-14 9.766726893743805 26.098963993203448
  endloop
endfacet
facet normal -1.0 -1.2689849171465544e-16 -3.667934735963673e-16
  outer loop
    vertex -3.1724622928663847e-15 24.99999999999999 3.524958103184872e-16
    vertex -1.6567303084968898e-14 10.2843410578996 24.772901647449803
    vertex -1.6567303084968898e-14 10.781431345219644 24.254950758243194
  endloop
endfacet
facet normal -1.0 -1.2689849171465544e-16 -3.667934735963673e-16
  outer loop
    vertex -3.1724622928663847e-15 24.99999999999999 3.524958103184872e-16
    vertex -1.6567303084968898e-14 10.781431345219644 24.254950758243194
    vertex -1.6567303084968898e-14 11.395639246293989 23.883305051103054
  endloop
endfacet
facet normal -1.0 -1.2689849171465544e-16 -3.667934735963673e-16
  outer loop
    vertex -3.1724622928663847e-15 24.99999999999999 3.524958103184872e-16
    vertex -1.6567303084968898e-14 11.395639246293989 23.883305051103054
    vertex -1.6567303084968898e-14 12.085107507690957 23.683291566797415
  endloop
endfacet
facet normal -1.0 -1.2689849171465544e-16 -3.667934735963673e-16
  outer loop
    vertex -3.1724622928663847e-15 24.99999999999999 3.524958103184872e-16
    vertex -1.6567303084968898e-14 12.085107507690957 23.683291566797415
    vertex -1.6567303084968898e-14 12.802850006796522 23.668540893743796
  endloop
endfacet
facet normal -1.0 -1.2689849171465544e-16 -3.667934735963673e-16
  outer loop
    vertex -3.1724622928663847e-15 24.99999999999999 3.524958103184872e-16
    vertex -1.6567303084968898e-14 12.802850006796522 23.668540893743796
    vertex -1.6567303084968898e-14 13.499953778422217 23.840058265934157
  endloop
endfacet
facet normal -1.0 -1.2689849171465544e-16 -3.667934735963673e-16
  outer loop
    vertex -3.1724622928663847e-15 24.99999999999999 3.524958103184872e-16
    vertex -1.6567303084968898e-14 13.499953778422217 23.840058265934157
    vertex -1.6567303084968898e-14 14.128912352550165 24.18615505789959
  endloop
endfacet
facet normal -1.0 -1.2689849171465544e-16 -3.667934735963673e-16
  outer loop
    vertex -3.1724622928663847e-15 24.99999999999999 3.524958103184872e-16
    vertex -1.6567303084968898e-14 14.128912352550165 24.18615505789959
    vertex -1.6567303084968898e-14 14.646863241756785 24.683245345219635
  endloop
endfacet
facet normal -1.0 -1.2689849171465544e-16 -3.667934735963673e-16
  outer loop
    vertex -3.1724622928663847e-15 24.99999999999999 3.524958103184872e-16
    vertex -1.6567303084968898e-14 14.646863241756785 24.683245345219635
    vertex -1.6567303084968898e-14 15.018508948896928 25.29745324629398
  endloop
endfacet
facet normal -1.0 -1.2689849171465544e-16 -3.667934735963673e-16
  outer loop
    vertex -3.1724622928663847e-15 24.99999999999999 3.524958103184872e-16
    vertex -1.6567303084968898e-14 15.018508948896928 25.29745324629398
    vertex -1.6567303084968898e-14 15.218522433202555 25.986921507690948
  endloop
endfacet
facet normal -1.0 -1.2689849171465544e-16 -3.667934735963673e-16
  outer loop
    vertex -3.1724622928663847e-15 24.99999999999999 3.524958103184872e-16
    vertex -1.6567303084968898e-14 15.218522433202555 25.986921507690948
    vertex -1.6567303084968898e-14 15.233273106256172 26.704664006796524
  endloop
endfacet
facet normal -1.0 -1.2689849171465544e-16 -3.667934735963673e-16
  outer loop
    vertex -3.1724622928663847e-15 24.99999999999999 3.524958103184872e-16
    vertex -1.6567303084968898e-14 15.233273106256172 26.704664006796524
    vertex -1.762479051592436e-14 24.99999999999999 39.401813999999995
  endloop
endfacet
facet normal 0.0 -0.7214865257686504 -0.6924284751035898
  outer loop
    vertex 12.999999999999963 14.218568654780354 28.548677241756778
    vertex -1.6567303084968898e-14 14.7156589421004 28.030726352550168
    vertex 12.999999999999963 14.7156589421004 28.030726352550168
  endloop
endfacet
facet normal 0.0 -0.7214865257686504 -0.6924284751035898
  outer loop
    vertex -1.6567303084968898e-14 14.7156589421004 28.030726352550168
    vertex 12.999999999999963 14.218568654780354 28.548677241756778
    vertex -1.6567303084968898e-14 14.218568654780354 28.548677241756778
  endloop
endfacet
facet normal 1.0 1.1279865930191598e-16 -2.3903687390818535e-32
  outer loop
    vertex 12.999999999999988 -3.524958103184872e-16 13.401813999999998
    vertex 12.999999999999963 10.2843410578996 24.772901647449803
    vertex 12.999999999999988 1.0927370119873103e-14 39.401813999999995
  endloop
endfacet
facet normal 1.0 1.1279865930191598e-16 -2.3903687390818535e-32
  outer loop
    vertex 12.999999999999963 10.2843410578996 24.772901647449803
    vertex 12.999999999999988 -3.524958103184872e-16 13.401813999999998
    vertex 12.999999999999963 10.781431345219644 24.254950758243194
  endloop
endfacet
facet normal 1.0 1.1279865930191598e-16 -2.3903687390818535e-32
  outer loop
    vertex 12.999999999999963 10.781431345219644 24.254950758243194
    vertex 12.999999999999988 -3.524958103184872e-16 13.401813999999998
    vertex 12.999999999999984 24.99999999999999 13.401813999999998
  endloop
endfacet
facet normal 1.0 1.1279865930191598e-16 -2.3903687390818535e-32
  outer loop
    vertex 12.999999999999988 1.0927370119873103e-14 39.401813999999995
    vertex 12.999999999999963 10.2843410578996 24.772901647449803
    vertex 12.999999999999963 9.938244265934165 25.401860221577763
  endloop
endfacet
facet normal 1.0 1.1279865930191598e-16 -2.3903687390818535e-32
  outer loop
    vertex 12.999999999999988 1.0927370119873103e-14 39.401813999999995
    vertex 12.999999999999963 9.938244265934165 25.401860221577763
    vertex 12.999999999999963 9.766726893743805 26.098963993203448
  endloop
endfacet
facet normal 1.0 1.1279865930191598e-16 -2.3903687390818535e-32
  outer loop
    vertex 12.999999999999963 10.781431345219644 24.254950758243194
    vertex 12.999999999999984 24.99999999999999 13.401813999999998
    vertex 12.999999999999963 11.395639246293989 23.883305051103054
  endloop
endfacet
facet normal 1.0 1.1279865930191598e-16 -2.3903687390818535e-32
  outer loop
    vertex 12.999999999999963 11.395639246293989 23.883305051103054
    vertex 12.999999999999984 24.99999999999999 13.401813999999998
    vertex 12.999999999999963 12.085107507690957 23.683291566797415
  endloop
endfacet
facet normal 1.0 1.1279865930191598e-16 -2.3903687390818535e-32
  outer loop
    vertex 12.999999999999963 12.085107507690957 23.683291566797415
    vertex 12.999999999999984 24.99999999999999 13.401813999999998
    vertex 12.999999999999963 12.802850006796522 23.668540893743796
  endloop
endfacet
facet normal 1.0 1.1279865930191598e-16 -2.3903687390818535e-32
  outer loop
    vertex 12.999999999999963 12.802850006796522 23.668540893743796
    vertex 12.999999999999984 24.99999999999999 13.401813999999998
    vertex 12.999999999999963 13.499953778422217 23.840058265934157
  endloop
endfacet
facet normal 1.0 1.1279865930191598e-16 -2.3903687390818535e-32
  outer loop
    vertex 12.999999999999963 13.499953778422217 23.840058265934157
    vertex 12.999999999999984 24.99999999999999 13.401813999999998
    vertex 12.999999999999963 14.128912352550165 24.18615505789959
  endloop
endfacet
facet normal 1.0 1.1279865930191598e-16 -2.3903687390818535e-32
  outer loop
    vertex 12.999999999999963 14.128912352550165 24.18615505789959
    vertex 12.999999999999984 24.99999999999999 13.401813999999998
    vertex 12.999999999999963 14.646863241756785 24.683245345219635
  endloop
endfacet
facet normal 1.0 1.1279865930191598e-16 -2.3903687390818535e-32
  outer loop
    vertex 12.999999999999963 14.646863241756785 24.683245345219635
    vertex 12.999999999999984 24.99999999999999 13.401813999999998
    vertex 12.999999999999963 15.018508948896928 25.29745324629398
  endloop
endfacet
facet normal 1.0 1.1279865930191598e-16 -2.3903687390818535e-32
  outer loop
    vertex 12.999999999999963 15.018508948896928 25.29745324629398
    vertex 12.999999999999984 24.99999999999999 13.401813999999998
    vertex 12.999999999999963 15.218522433202555 25.986921507690948
  endloop
endfacet
facet normal 1.0 1.1279865930191598e-16 -2.3903687390818535e-32
  outer loop
    vertex 12.999999999999963 15.218522433202555 25.986921507690948
    vertex 12.999999999999984 24.99999999999999 13.401813999999998
    vertex 12.999999999999963 15.233273106256172 26.704664006796524
  endloop
endfacet
facet normal 1.0 1.1279865930191598e-16 -2.3903687390818535e-32
  outer loop
    vertex 12.999999999999988 1.0927370119873103e-14 39.401813999999995
    vertex 12.999999999999963 10.871087647449823 28.61747294210038
    vertex 12.999999999999984 24.99999999999999 39.401813999999995
  endloop
endfacet
facet normal 1.0 1.1279865930191598e-16 -2.3903687390818535e-32
  outer loop
    vertex 12.999999999999963 10.871087647449823 28.61747294210038
    vertex 12.999999999999988 1.0927370119873103e-14 39.401813999999995
    vertex 12.999999999999963 10.353136758243203 28.120382654780336
  endloop
endfacet
facet normal 1.0 1.1279865930191598e-16 -2.3903687390818535e-32
  outer loop
    vertex 12.999999999999963 10.353136758243203 28.120382654780336
    vertex 12.999999999999988 1.0927370119873103e-14 39.401813999999995
    vertex 12.999999999999963 9.981491051103061 27.50617475370599
  endloop
endfacet
facet normal 1.0 1.1279865930191598e-16 -2.3903687390818535e-32
  outer loop
    vertex 12.999999999999963 9.981491051103061 27.50617475370599
    vertex 12.999999999999988 1.0927370119873103e-14 39.401813999999995
    vertex 12.999999999999963 9.781477566797422 26.816706492309024
  endloop
endfacet
facet normal 1.0 1.1279865930191598e-16 -2.3903687390818535e-32
  outer loop
    vertex 12.999999999999963 9.781477566797422 26.816706492309024
    vertex 12.999999999999988 1.0927370119873103e-14 39.401813999999995
    vertex 12.999999999999963 9.766726893743805 26.098963993203448
  endloop
endfacet
facet normal 1.0 1.1279865930191598e-16 -2.3903687390818535e-32
  outer loop
    vertex 12.999999999999984 24.99999999999999 39.401813999999995
    vertex 12.999999999999963 10.871087647449823 28.61747294210038
    vertex 12.999999999999963 11.50004622157777 28.963569734065814
  endloop
endfacet
facet normal 1.0 1.1279865930191598e-16 -2.3903687390818535e-32
  outer loop
    vertex 12.999999999999984 24.99999999999999 39.401813999999995
    vertex 12.999999999999963 11.50004622157777 28.963569734065814
    vertex 12.999999999999963 12.197149993203467 29.135087106256176
  endloop
endfacet
facet normal 1.0 1.1279865930191598e-16 -2.3903687390818535e-32
  outer loop
    vertex 12.999999999999984 24.99999999999999 39.401813999999995
    vertex 12.999999999999963 12.197149993203467 29.135087106256176
    vertex 12.999999999999963 12.914892492309033 29.120336433202556
  endloop
endfacet
facet normal 1.0 1.1279865930191598e-16 -2.3903687390818535e-32
  outer loop
    vertex 12.999999999999984 24.99999999999999 39.401813999999995
    vertex 12.999999999999963 12.914892492309033 29.120336433202556
    vertex 12.999999999999963 13.604360753706 28.92032294889692
  endloop
endfacet
facet normal 1.0 1.1279865930191598e-16 -2.3903687390818535e-32
  outer loop
    vertex 12.999999999999984 24.99999999999999 39.401813999999995
    vertex 12.999999999999963 13.604360753706 28.92032294889692
    vertex 12.999999999999963 14.218568654780354 28.548677241756778
  endloop
endfacet
facet normal 1.0 1.1279865930191598e-16 -2.3903687390818535e-32
  outer loop
    vertex 12.999999999999984 24.99999999999999 39.401813999999995
    vertex 12.999999999999963 14.218568654780354 28.548677241756778
    vertex 12.999999999999963 14.7156589421004 28.030726352550168
  endloop
endfacet
facet normal 1.0 1.1279865930191598e-16 -2.3903687390818535e-32
  outer loop
    vertex 12.999999999999984 24.99999999999999 39.401813999999995
    vertex 12.999999999999963 14.7156589421004 28.030726352550168
    vertex 12.999999999999963 15.061755734065823 27.401767778422208
  endloop
endfacet
facet normal 1.0 1.1279865930191598e-16 -2.3903687390818535e-32
  outer loop
    vertex 12.999999999999984 24.99999999999999 39.401813999999995
    vertex 12.999999999999963 15.061755734065823 27.401767778422208
    vertex 12.999999999999963 15.233273106256172 26.704664006796524
  endloop
endfacet
facet normal 1.0 1.1279865930191598e-16 -2.3903687390818535e-32
  outer loop
    vertex 12.999999999999984 24.99999999999999 39.401813999999995
    vertex 12.999999999999963 15.233273106256172 26.704664006796524
    vertex 12.999999999999984 24.99999999999999 13.401813999999998
  endloop
endfacet
facet normal -1.0 -4.971966977290256e-32 -4.338409973150616e-16
  outer loop
    vertex 38.999999999999964 24.999999999999964 39.401813999999995
    vertex 38.99999999999997 -3.4192093600893255e-14 13.401814000000032
    vertex 38.999999999999964 -3.4192093600893255e-14 39.401813999999995
  endloop
endfacet
facet normal -1.0 -4.971966977290256e-32 -4.338409973150616e-16
  outer loop
    vertex 38.99999999999997 -3.4192093600893255e-14 13.401814000000032
    vertex 38.999999999999964 24.999999999999964 39.401813999999995
    vertex 38.99999999999997 24.999999999999964 13.401814000000027
  endloop
endfacet
facet normal 0.6087614290087189 0.7933533402912367 -5.715143574189493e-16
  outer loop
    vertex 24.727207793864206 11.227207793864176 8.40181400000003
    vertex 25.09999999999997 10.941154273187985 3.489708522153023e-14
    vertex 24.72720779386418 11.227207793864187 3.489708522153023e-14
  endloop
endfacet
facet normal 0.6087614290087189 0.7933533402912367 -5.715143574189493e-16
  outer loop
    vertex 25.09999999999997 10.941154273187985 3.489708522153023e-14
    vertex 24.727207793864206 11.227207793864176 8.40181400000003
    vertex 25.09999999999999 10.941154273187973 8.40181400000003
  endloop
endfacet
facet normal 0.38268343236508934 0.9238795325112871 4.708457832661904e-16
  outer loop
    vertex 25.09999999999999 10.941154273187973 8.40181400000003
    vertex 25.534125718815435 10.761333512679652 3.489708522153023e-14
    vertex 25.09999999999997 10.941154273187985 3.489708522153023e-14
  endloop
endfacet
facet normal 0.38268343236508934 0.9238795325112871 4.708457832661904e-16
  outer loop
    vertex 25.534125718815435 10.761333512679652 3.489708522153023e-14
    vertex 25.09999999999999 10.941154273187973 8.40181400000003
    vertex 25.534125718815446 10.76133351267964 8.40181400000003
  endloop
endfacet
facet normal 0.13052619222005174 0.9914448613738105 1.0683845214188539e-15
  outer loop
    vertex 25.534125718815446 10.76133351267964 8.40181400000003
    vertex 25.999999999999964 10.699999999999974 3.489708522153023e-14
    vertex 25.534125718815435 10.761333512679652 3.489708522153023e-14
  endloop
endfacet
facet normal 0.13052619222005174 0.9914448613738105 1.0683845214188539e-15
  outer loop
    vertex 25.999999999999964 10.699999999999974 3.489708522153023e-14
    vertex 25.534125718815446 10.76133351267964 8.40181400000003
    vertex 25.999999999999986 10.699999999999964 8.40181400000003
  endloop
endfacet
facet normal -0.1305261922200502 0.9914448613738107 1.6816835648193223e-15
  outer loop
    vertex 25.999999999999986 10.699999999999964 8.40181400000003
    vertex 26.4658742811845 10.761333512679652 3.489708522153023e-14
    vertex 25.999999999999964 10.699999999999974 3.489708522153023e-14
  endloop
endfacet
facet normal -0.1305261922200502 0.9914448613738107 1.6816835648193223e-15
  outer loop
    vertex 26.4658742811845 10.761333512679652 3.489708522153023e-14
    vertex 25.999999999999986 10.699999999999964 8.40181400000003
    vertex 26.465874281184526 10.76133351267964 8.40181400000003
  endloop
endfacet
facet normal -0.3826834323650872 0.9238795325112878 2.0100939666416085e-15
  outer loop
    vertex 26.465874281184526 10.76133351267964 8.40181400000003
    vertex 26.899999999999974 10.941154273187985 3.489708522153023e-14
    vertex 26.4658742811845 10.761333512679652 3.489708522153023e-14
  endloop
endfacet
facet normal -0.3826834323650872 0.9238795325112878 2.0100939666416085e-15
  outer loop
    vertex 26.899999999999974 10.941154273187985 3.489708522153023e-14
    vertex 26.465874281184526 10.76133351267964 8.40181400000003
    vertex 26.899999999999984 10.941154273187973 8.40181400000003
  endloop
endfacet
facet normal -0.6087614290087227 0.7933533402912337 1.8820900789384064e-15
  outer loop
    vertex 26.899999999999984 10.941154273187973 8.40181400000003
    vertex 27.272792206135758 11.22720779386419 3.489708522153023e-14
    vertex 26.899999999999974 10.941154273187985 3.489708522153023e-14
  endloop
endfacet
facet normal -0.6087614290087227 0.7933533402912337 1.8820900789384064e-15
  outer loop
    vertex 27.272792206135758 11.22720779386419 3.489708522153023e-14
    vertex 26.899999999999984 10.941154273187973 8.40181400000003
    vertex 27.27279220613577 11.22720779386418 8.401814000000034
  endloop
endfacet
facet normal -0.7933533402912367 0.6087614290087189 1.8813039419416503e-15
  outer loop
    vertex 27.558845726811974 11.599999999999964 8.40181400000003
    vertex 27.272792206135758 11.22720779386419 3.489708522153023e-14
    vertex 27.27279220613577 11.22720779386418 8.401814000000034
  endloop
endfacet
facet normal -0.7933533402912367 0.6087614290087189 1.8813039419416503e-15
  outer loop
    vertex 27.272792206135758 11.22720779386419 3.489708522153023e-14
    vertex 27.558845726811974 11.599999999999964 8.40181400000003
    vertex 27.558845726811963 11.599999999999977 3.489708522153023e-14
  endloop
endfacet
facet normal -0.9238795325112892 0.3826834323650841 2.3753611988563637e-15
  outer loop
    vertex 27.73866648732031 12.034125718815426 8.40181400000003
    vertex 27.558845726811963 11.599999999999977 3.489708522153023e-14
    vertex 27.558845726811974 11.599999999999964 8.40181400000003
  endloop
endfacet
facet normal -0.9238795325112892 0.3826834323650841 2.3753611988563637e-15
  outer loop
    vertex 27.558845726811963 11.599999999999977 3.489708522153023e-14
    vertex 27.73866648732031 12.034125718815426 8.40181400000003
    vertex 27.738666487320288 12.034125718815439 3.489708522153023e-14
  endloop
endfacet
facet normal -0.9914448613738098 0.1305261922200561 2.171920197557208e-15
  outer loop
    vertex 27.799999999999983 12.499999999999966 8.40181400000003
    vertex 27.738666487320288 12.034125718815439 3.489708522153023e-14
    vertex 27.73866648732031 12.034125718815426 8.40181400000003
  endloop
endfacet
facet normal -0.9914448613738098 0.1305261922200561 2.171920197557208e-15
  outer loop
    vertex 27.738666487320288 12.034125718815439 3.489708522153023e-14
    vertex 27.799999999999983 12.499999999999966 8.40181400000003
    vertex 27.799999999999972 12.499999999999977 3.489708522153023e-14
  endloop
endfacet
facet normal -0.9914448613738098 -0.13052619222005693 1.8214117088556376e-15
  outer loop
    vertex 27.73866648732031 12.965874281184501 8.40181400000003
    vertex 27.799999999999972 12.499999999999977 3.489708522153023e-14
    vertex 27.799999999999983 12.499999999999966 8.40181400000003
  endloop
endfacet
facet normal -0.9914448613738098 -0.13052619222005693 1.8214117088556376e-15
  outer loop
    vertex 27.799999999999972 12.499999999999977 3.489708522153023e-14
    vertex 27.73866648732031 12.965874281184501 8.40181400000003
    vertex 27.738666487320288 12.965874281184513 3.489708522153023e-14
  endloop
endfacet
facet normal -0.9238795325112849 -0.38268343236509433 1.9665840306072665e-15
  outer loop
    vertex 27.558845726811974 13.399999999999965 8.40181400000003
    vertex 27.738666487320288 12.965874281184513 3.489708522153023e-14
    vertex 27.73866648732031 12.965874281184501 8.40181400000003
  endloop
endfacet
facet normal -0.9238795325112849 -0.38268343236509433 1.9665840306072665e-15
  outer loop
    vertex 27.738666487320288 12.965874281184513 3.489708522153023e-14
    vertex 27.558845726811974 13.399999999999965 8.40181400000003
    vertex 27.55884572681195 13.399999999999975 3.489708522153023e-14
  endloop
endfacet
facet normal -0.7933533402912367 -0.6087614290087189 1.3136657839613061e-15
  outer loop
    vertex 27.27279220613577 13.77279220613575 8.40181400000003
    vertex 27.55884572681195 13.399999999999975 3.489708522153023e-14
    vertex 27.558845726811974 13.399999999999965 8.40181400000003
  endloop
endfacet
facet normal -0.7933533402912367 -0.6087614290087189 1.3136657839613061e-15
  outer loop
    vertex 27.55884572681195 13.399999999999975 3.489708522153023e-14
    vertex 27.27279220613577 13.77279220613575 8.40181400000003
    vertex 27.272792206135748 13.772792206135762 3.489708522153023e-14
  endloop
endfacet
facet normal -0.6087614290087227 -0.7933533402912336 5.707282204222082e-16
  outer loop
    vertex 27.27279220613577 13.77279220613575 8.40181400000003
    vertex 26.899999999999963 14.058845726811967 3.489708522153023e-14
    vertex 27.272792206135748 13.772792206135762 3.489708522153023e-14
  endloop
endfacet
facet normal -0.6087614290087227 -0.7933533402912336 5.707282204222082e-16
  outer loop
    vertex 26.899999999999963 14.058845726811967 3.489708522153023e-14
    vertex 27.27279220613577 13.77279220613575 8.40181400000003
    vertex 26.899999999999984 14.058845726811956 8.40181400000003
  endloop
endfacet
facet normal -0.382683432365082 -0.92387953251129 -4.691719022575033e-16
  outer loop
    vertex 26.899999999999984 14.058845726811956 8.40181400000003
    vertex 26.4658742811845 14.238666487320296 3.489708522153023e-14
    vertex 26.899999999999963 14.058845726811967 3.489708522153023e-14
  endloop
endfacet
facet normal -0.382683432365082 -0.92387953251129 -4.691719022575033e-16
  outer loop
    vertex 26.4658742811845 14.238666487320296 3.489708522153023e-14
    vertex 26.899999999999984 14.058845726811956 8.40181400000003
    vertex 26.465874281184515 14.238666487320286 8.40181400000003
  endloop
endfacet
facet normal -0.13052619222005174 -0.9914448613738105 -1.0686170569059007e-15
  outer loop
    vertex 26.465874281184515 14.238666487320286 8.40181400000003
    vertex 25.999999999999964 14.299999999999974 3.489708522153023e-14
    vertex 26.4658742811845 14.238666487320296 3.489708522153023e-14
  endloop
endfacet
facet normal -0.13052619222005174 -0.9914448613738105 -1.0686170569059007e-15
  outer loop
    vertex 25.999999999999964 14.299999999999974 3.489708522153023e-14
    vertex 26.465874281184515 14.238666487320286 8.40181400000003
    vertex 25.999999999999986 14.299999999999962 8.40181400000003
  endloop
endfacet
facet normal 0.1305261922200502 -0.9914448613738107 -1.6816835648193223e-15
  outer loop
    vertex 25.999999999999986 14.299999999999962 8.40181400000003
    vertex 25.534125718815424 14.238666487320296 3.489708522153023e-14
    vertex 25.999999999999964 14.299999999999974 3.489708522153023e-14
  endloop
endfacet
facet normal 0.1305261922200502 -0.9914448613738107 -1.6816835648193223e-15
  outer loop
    vertex 25.534125718815424 14.238666487320296 3.489708522153023e-14
    vertex 25.999999999999986 14.299999999999962 8.40181400000003
    vertex 25.534125718815446 14.238666487320286 8.40181400000003
  endloop
endfacet
facet normal 0.38268343236509433 -0.9238795325112849 -2.011924918486569e-15
  outer loop
    vertex 25.534125718815446 14.238666487320286 8.40181400000003
    vertex 25.09999999999997 14.058845726811962 3.489708522153023e-14
    vertex 25.534125718815424 14.238666487320296 3.489708522153023e-14
  endloop
endfacet
facet normal 0.38268343236509433 -0.9238795325112849 -2.011924918486569e-15
  outer loop
    vertex 25.09999999999997 14.058845726811962 3.489708522153023e-14
    vertex 25.534125718815446 14.238666487320286 8.40181400000003
    vertex 25.09999999999998 14.05884572681195 8.40181400000003
  endloop
endfacet
facet normal 0.6087614290087189 -0.7933533402912367 -1.880097493673934e-15
  outer loop
    vertex 25.09999999999998 14.05884572681195 8.40181400000003
    vertex 24.72720779386418 13.772792206135758 3.489708522153023e-14
    vertex 25.09999999999997 14.058845726811962 3.489708522153023e-14
  endloop
endfacet
facet normal 0.6087614290087189 -0.7933533402912367 -1.880097493673934e-15
  outer loop
    vertex 24.72720779386418 13.772792206135758 3.489708522153023e-14
    vertex 25.09999999999998 14.05884572681195 8.40181400000003
    vertex 24.727207793864192 13.772792206135748 8.401814000000027
  endloop
endfacet
facet normal 0.7933533402912367 -0.6087614290087189 -1.880097493673934e-15
  outer loop
    vertex 24.44115427318798 13.399999999999972 3.489708522153023e-14
    vertex 24.727207793864192 13.772792206135748 8.401814000000027
    vertex 24.44115427318799 13.399999999999961 8.40181400000003
  endloop
endfacet
facet normal 0.7933533402912367 -0.6087614290087189 -1.880097493673934e-15
  outer loop
    vertex 24.727207793864192 13.772792206135748 8.401814000000027
    vertex 24.44115427318798 13.399999999999972 3.489708522153023e-14
    vertex 24.72720779386418 13.772792206135758 3.489708522153023e-14
  endloop
endfacet
facet normal 0.9238795325112892 -0.3826834323650841 -2.3736873178476583e-15
  outer loop
    vertex 24.261333512679645 12.96587428118451 3.489708522153023e-14
    vertex 24.44115427318799 13.399999999999961 8.40181400000003
    vertex 24.261333512679666 12.9658742811845 8.40181400000003
  endloop
endfacet
facet normal 0.9238795325112892 -0.3826834323650841 -2.3736873178476583e-15
  outer loop
    vertex 24.44115427318799 13.399999999999961 8.40181400000003
    vertex 24.261333512679645 12.96587428118451 3.489708522153023e-14
    vertex 24.44115427318798 13.399999999999972 3.489708522153023e-14
  endloop
endfacet
facet normal 0.9914448613738098 -0.1305261922200561 -2.1716745908879647e-15
  outer loop
    vertex 24.19999999999997 12.499999999999972 3.489708522153023e-14
    vertex 24.261333512679666 12.9658742811845 8.40181400000003
    vertex 24.19999999999998 12.499999999999961 8.40181400000003
  endloop
endfacet
facet normal 0.9914448613738098 -0.1305261922200561 -2.1716745908879647e-15
  outer loop
    vertex 24.261333512679666 12.9658742811845 8.40181400000003
    vertex 24.19999999999997 12.499999999999972 3.489708522153023e-14
    vertex 24.261333512679645 12.96587428118451 3.489708522153023e-14
  endloop
endfacet
facet normal 0.9914448613738098 0.1305261922200569 -1.821166102186394e-15
  outer loop
    vertex 24.261333512679645 12.034125718815435 3.489708522153023e-14
    vertex 24.19999999999998 12.499999999999961 8.40181400000003
    vertex 24.261333512679666 12.034125718815424 8.40181400000003
  endloop
endfacet
facet normal 0.9914448613738098 0.1305261922200569 -1.821166102186394e-15
  outer loop
    vertex 24.19999999999998 12.499999999999961 8.40181400000003
    vertex 24.261333512679645 12.034125718815435 3.489708522153023e-14
    vertex 24.19999999999997 12.499999999999972 3.489708522153023e-14
  endloop
endfacet
facet normal 0.9238795325112849 0.38268343236509433 -1.965825625521036e-15
  outer loop
    vertex 24.44115427318798 11.599999999999973 3.489708522153023e-14
    vertex 24.261333512679666 12.034125718815424 8.40181400000003
    vertex 24.441154273188 11.599999999999962 8.40181400000003
  endloop
endfacet
facet normal 0.9238795325112849 0.38268343236509433 -1.965825625521036e-15
  outer loop
    vertex 24.261333512679666 12.034125718815424 8.40181400000003
    vertex 24.44115427318798 11.599999999999973 3.489708522153023e-14
    vertex 24.261333512679645 12.034125718815435 3.489708522153023e-14
  endloop
endfacet
facet normal 0.7933533402912367 0.6087614290087189 -1.3136657839613061e-15
  outer loop
    vertex 24.72720779386418 11.227207793864187 3.489708522153023e-14
    vertex 24.441154273188 11.599999999999962 8.40181400000003
    vertex 24.727207793864206 11.227207793864176 8.40181400000003
  endloop
endfacet
facet normal 0.7933533402912367 0.6087614290087189 -1.3136657839613061e-15
  outer loop
    vertex 24.441154273188 11.599999999999962 8.40181400000003
    vertex 24.72720779386418 11.227207793864187 3.489708522153023e-14
    vertex 24.44115427318798 11.599999999999973 3.489708522153023e-14
  endloop
endfacet
facet normal -8.002736255335082e-16 3.3148418930546615e-16 1.0
  outer loop
    vertex 24.199999999999992 9.382308546375986 8.40181400000003
    vertex 24.19999999999998 12.499999999999961 8.40181400000003
    vertex 23.45441558772842 9.954415587728395 8.40181400000003
  endloop
endfacet
facet normal -8.002736255335082e-16 3.3148418930546615e-16 1.0
  outer loop
    vertex 24.19999999999998 12.499999999999961 8.40181400000003
    vertex 24.199999999999992 9.382308546375986 8.40181400000003
    vertex 24.261333512679666 12.034125718815424 8.40181400000003
  endloop
endfacet
facet normal -8.002736255335082e-16 3.3148418930546615e-16 1.0
  outer loop
    vertex 24.261333512679666 12.034125718815424 8.40181400000003
    vertex 24.199999999999992 9.382308546375986 8.40181400000003
    vertex 25.068251437630913 9.02266702535932 8.40181400000003
  endloop
endfacet
facet normal -8.002736255335082e-16 3.3148418930546615e-16 1.0
  outer loop
    vertex 24.261333512679666 12.034125718815424 8.40181400000003
    vertex 25.068251437630913 9.02266702535932 8.40181400000003
    vertex 24.441154273188 11.599999999999962 8.40181400000003
  endloop
endfacet
facet normal -8.002736255335082e-16 3.3148418930546615e-16 1.0
  outer loop
    vertex 24.441154273188 11.599999999999962 8.40181400000003
    vertex 25.068251437630913 9.02266702535932 8.40181400000003
    vertex 24.727207793864206 11.227207793864176 8.40181400000003
  endloop
endfacet
facet normal -8.002736255335082e-16 3.3148418930546615e-16 1.0
  outer loop
    vertex 24.727207793864206 11.227207793864176 8.40181400000003
    vertex 25.068251437630913 9.02266702535932 8.40181400000003
    vertex 25.09999999999999 10.941154273187973 8.40181400000003
  endloop
endfacet
facet normal -8.002736255335082e-16 3.3148418930546615e-16 1.0
  outer loop
    vertex 25.09999999999999 10.941154273187973 8.40181400000003
    vertex 25.068251437630913 9.02266702535932 8.40181400000003
    vertex 25.999999999999986 8.899999999999967 8.40181400000003
  endloop
endfacet
facet normal -8.002736255335082e-16 3.3148418930546615e-16 1.0
  outer loop
    vertex 25.09999999999999 10.941154273187973 8.40181400000003
    vertex 25.999999999999986 8.899999999999967 8.40181400000003
    vertex 25.534125718815446 10.76133351267964 8.40181400000003
  endloop
endfacet
facet normal -8.002736255335082e-16 3.3148418930546615e-16 1.0
  outer loop
    vertex 25.534125718815446 10.76133351267964 8.40181400000003
    vertex 25.999999999999986 8.899999999999967 8.40181400000003
    vertex 25.999999999999986 10.699999999999964 8.40181400000003
  endloop
endfacet
facet normal -8.002736255335082e-16 3.3148418930546615e-16 1.0
  outer loop
    vertex 25.999999999999986 10.699999999999964 8.40181400000003
    vertex 25.999999999999986 8.899999999999967 8.40181400000003
    vertex 26.931748562369062 9.02266702535932 8.401814000000034
  endloop
endfacet
facet normal -8.002736255335082e-16 3.3148418930546615e-16 1.0
  outer loop
    vertex 25.999999999999986 10.699999999999964 8.40181400000003
    vertex 26.931748562369062 9.02266702535932 8.401814000000034
    vertex 26.465874281184526 10.76133351267964 8.40181400000003
  endloop
endfacet
facet normal -8.002736255335082e-16 3.3148418930546615e-16 1.0
  outer loop
    vertex 26.465874281184526 10.76133351267964 8.40181400000003
    vertex 26.931748562369062 9.02266702535932 8.401814000000034
    vertex 26.899999999999984 10.941154273187973 8.40181400000003
  endloop
endfacet
facet normal -8.002736255335082e-16 3.3148418930546615e-16 1.0
  outer loop
    vertex 26.899999999999984 10.941154273187973 8.40181400000003
    vertex 26.931748562369062 9.02266702535932 8.401814000000034
    vertex 27.27279220613577 11.22720779386418 8.401814000000034
  endloop
endfacet
facet normal -8.002736255335082e-16 3.3148418930546615e-16 1.0
  outer loop
    vertex 27.27279220613577 11.22720779386418 8.401814000000034
    vertex 26.931748562369062 9.02266702535932 8.401814000000034
    vertex 27.799999999999983 9.382308546375986 8.401814000000034
  endloop
endfacet
facet normal -8.002736255335082e-16 3.3148418930546615e-16 1.0
  outer loop
    vertex 27.27279220613577 11.22720779386418 8.401814000000034
    vertex 27.799999999999983 9.382308546375986 8.401814000000034
    vertex 27.558845726811974 11.599999999999964 8.40181400000003
  endloop
endfacet
facet normal -8.002736255335082e-16 3.3148418930546615e-16 1.0
  outer loop
    vertex 27.558845726811974 11.599999999999964 8.40181400000003
    vertex 27.799999999999983 9.382308546375986 8.401814000000034
    vertex 27.73866648732031 12.034125718815426 8.40181400000003
  endloop
endfacet
facet normal -8.002736255335082e-16 3.3148418930546615e-16 1.0
  outer loop
    vertex 27.73866648732031 12.034125718815426 8.40181400000003
    vertex 27.799999999999983 9.382308546375986 8.401814000000034
    vertex 27.799999999999983 12.499999999999966 8.40181400000003
  endloop
endfacet
facet normal -8.002736255335082e-16 3.3148418930546615e-16 1.0
  outer loop
    vertex 27.799999999999983 12.499999999999966 8.40181400000003
    vertex 27.799999999999983 9.382308546375986 8.401814000000034
    vertex 28.545584412271555 9.954415587728395 8.401814000000034
  endloop
endfacet
facet normal -8.002736255335082e-16 3.3148418930546615e-16 1.0
  outer loop
    vertex 27.799999999999983 12.499999999999966 8.40181400000003
    vertex 28.545584412271555 9.954415587728395 8.401814000000034
    vertex 27.799999999999983 15.617691453623943 8.40181400000003
  endloop
endfacet
facet normal -8.002736255335082e-16 3.3148418930546615e-16 1.0
  outer loop
    vertex 27.799999999999983 15.617691453623943 8.40181400000003
    vertex 28.545584412271555 9.954415587728395 8.401814000000034
    vertex 28.545584412271555 15.045584412271534 8.40181400000003
  endloop
endfacet
facet normal -8.002736255335082e-16 3.3148418930546615e-16 1.0
  outer loop
    vertex 28.545584412271555 15.045584412271534 8.40181400000003
    vertex 28.545584412271555 9.954415587728395 8.401814000000034
    vertex 29.117691453623962 10.699999999999964 8.401814000000034
  endloop
endfacet
facet normal -8.002736255335082e-16 3.3148418930546615e-16 1.0
  outer loop
    vertex 28.545584412271555 15.045584412271534 8.40181400000003
    vertex 29.117691453623962 10.699999999999964 8.401814000000034
    vertex 29.117691453623962 14.299999999999965 8.401814000000034
  endloop
endfacet
facet normal -8.002736255335082e-16 3.3148418930546615e-16 1.0
  outer loop
    vertex 29.117691453623962 14.299999999999965 8.401814000000034
    vertex 29.117691453623962 10.699999999999964 8.401814000000034
    vertex 29.477332974640632 11.568251437630888 8.401814000000034
  endloop
endfacet
facet normal -8.002736255335082e-16 3.3148418930546615e-16 1.0
  outer loop
    vertex 29.117691453623962 14.299999999999965 8.401814000000034
    vertex 29.477332974640632 11.568251437630888 8.401814000000034
    vertex 29.477332974640632 13.431748562369041 8.401814000000034
  endloop
endfacet
facet normal -8.002736255335082e-16 3.3148418930546615e-16 1.0
  outer loop
    vertex 29.477332974640632 13.431748562369041 8.401814000000034
    vertex 29.477332974640632 11.568251437630888 8.401814000000034
    vertex 29.59999999999998 12.499999999999963 8.401814000000034
  endloop
endfacet
facet normal -8.002736255335082e-16 3.3148418930546615e-16 1.0
  outer loop
    vertex 22.52266702535934 11.568251437630888 8.401814000000027
    vertex 22.52266702535934 13.431748562369036 8.401814000000027
    vertex 22.399999999999988 12.499999999999963 8.401814000000027
  endloop
endfacet
facet normal -8.002736255335082e-16 3.3148418930546615e-16 1.0
  outer loop
    vertex 22.52266702535934 13.431748562369036 8.401814000000027
    vertex 22.52266702535934 11.568251437630888 8.401814000000027
    vertex 22.88230854637601 10.699999999999964 8.401814000000027
  endloop
endfacet
facet normal -8.002736255335082e-16 3.3148418930546615e-16 1.0
  outer loop
    vertex 22.52266702535934 13.431748562369036 8.401814000000027
    vertex 22.88230854637601 10.699999999999964 8.401814000000027
    vertex 22.882308546376006 14.299999999999962 8.401814000000027
  endloop
endfacet
facet normal -8.002736255335082e-16 3.3148418930546615e-16 1.0
  outer loop
    vertex 22.882308546376006 14.299999999999962 8.401814000000027
    vertex 22.88230854637601 10.699999999999964 8.401814000000027
    vertex 23.454415587728416 15.04558441227153 8.401814000000027
  endloop
endfacet
facet normal -8.002736255335082e-16 3.3148418930546615e-16 1.0
  outer loop
    vertex 23.454415587728416 15.04558441227153 8.401814000000027
    vertex 22.88230854637601 10.699999999999964 8.401814000000027
    vertex 23.45441558772842 9.954415587728395 8.40181400000003
  endloop
endfacet
facet normal -8.002736255335082e-16 3.3148418930546615e-16 1.0
  outer loop
    vertex 23.454415587728416 15.04558441227153 8.401814000000027
    vertex 23.45441558772842 9.954415587728395 8.40181400000003
    vertex 24.19999999999998 15.61769145362394 8.401814000000027
  endloop
endfacet
facet normal -8.002736255335082e-16 3.3148418930546615e-16 1.0
  outer loop
    vertex 24.19999999999998 15.61769145362394 8.401814000000027
    vertex 23.45441558772842 9.954415587728395 8.40181400000003
    vertex 24.19999999999998 12.499999999999961 8.40181400000003
  endloop
endfacet
facet normal -8.002736255335082e-16 3.3148418930546615e-16 1.0
  outer loop
    vertex 24.19999999999998 15.61769145362394 8.401814000000027
    vertex 24.19999999999998 12.499999999999961 8.40181400000003
    vertex 24.261333512679666 12.9658742811845 8.40181400000003
  endloop
endfacet
facet normal -8.002736255335082e-16 3.3148418930546615e-16 1.0
  outer loop
    vertex 24.19999999999998 15.61769145362394 8.401814000000027
    vertex 24.261333512679666 12.9658742811845 8.40181400000003
    vertex 25.068251437630913 15.977332974640609 8.401814000000027
  endloop
endfacet
facet normal -8.002736255335082e-16 3.3148418930546615e-16 1.0
  outer loop
    vertex 25.068251437630913 15.977332974640609 8.401814000000027
    vertex 24.261333512679666 12.9658742811845 8.40181400000003
    vertex 24.44115427318799 13.399999999999961 8.40181400000003
  endloop
endfacet
facet normal -8.002736255335082e-16 3.3148418930546615e-16 1.0
  outer loop
    vertex 25.068251437630913 15.977332974640609 8.401814000000027
    vertex 24.44115427318799 13.399999999999961 8.40181400000003
    vertex 24.727207793864192 13.772792206135748 8.401814000000027
  endloop
endfacet
facet normal -8.002736255335082e-16 3.3148418930546615e-16 1.0
  outer loop
    vertex 25.068251437630913 15.977332974640609 8.401814000000027
    vertex 24.727207793864192 13.772792206135748 8.401814000000027
    vertex 25.09999999999998 14.05884572681195 8.40181400000003
  endloop
endfacet
facet normal -8.002736255335082e-16 3.3148418930546615e-16 1.0
  outer loop
    vertex 25.068251437630913 15.977332974640609 8.401814000000027
    vertex 25.09999999999998 14.05884572681195 8.40181400000003
    vertex 25.999999999999986 16.099999999999962 8.40181400000003
  endloop
endfacet
facet normal -8.002736255335082e-16 3.3148418930546615e-16 1.0
  outer loop
    vertex 25.999999999999986 16.099999999999962 8.40181400000003
    vertex 25.09999999999998 14.05884572681195 8.40181400000003
    vertex 25.534125718815446 14.238666487320286 8.40181400000003
  endloop
endfacet
facet normal -8.002736255335082e-16 3.3148418930546615e-16 1.0
  outer loop
    vertex 25.999999999999986 16.099999999999962 8.40181400000003
    vertex 25.534125718815446 14.238666487320286 8.40181400000003
    vertex 25.999999999999986 14.299999999999962 8.40181400000003
  endloop
endfacet
facet normal -8.002736255335082e-16 3.3148418930546615e-16 1.0
  outer loop
    vertex 25.999999999999986 16.099999999999962 8.40181400000003
    vertex 25.999999999999986 14.299999999999962 8.40181400000003
    vertex 26.465874281184515 14.238666487320286 8.40181400000003
  endloop
endfacet
facet normal -8.002736255335082e-16 3.3148418930546615e-16 1.0
  outer loop
    vertex 25.999999999999986 16.099999999999962 8.40181400000003
    vertex 26.465874281184515 14.238666487320286 8.40181400000003
    vertex 26.93174856236905 15.977332974640609 8.40181400000003
  endloop
endfacet
facet normal -8.002736255335082e-16 3.3148418930546615e-16 1.0
  outer loop
    vertex 26.93174856236905 15.977332974640609 8.40181400000003
    vertex 26.465874281184515 14.238666487320286 8.40181400000003
    vertex 26.899999999999984 14.058845726811956 8.40181400000003
  endloop
endfacet
facet normal -8.002736255335082e-16 3.3148418930546615e-16 1.0
  outer loop
    vertex 26.93174856236905 15.977332974640609 8.40181400000003
    vertex 26.899999999999984 14.058845726811956 8.40181400000003
    vertex 27.27279220613577 13.77279220613575 8.40181400000003
  endloop
endfacet
facet normal -8.002736255335082e-16 3.3148418930546615e-16 1.0
  outer loop
    vertex 26.93174856236905 15.977332974640609 8.40181400000003
    vertex 27.27279220613577 13.77279220613575 8.40181400000003
    vertex 27.799999999999983 15.617691453623943 8.40181400000003
  endloop
endfacet
facet normal -8.002736255335082e-16 3.3148418930546615e-16 1.0
  outer loop
    vertex 27.799999999999983 15.617691453623943 8.40181400000003
    vertex 27.27279220613577 13.77279220613575 8.40181400000003
    vertex 27.558845726811974 13.399999999999965 8.40181400000003
  endloop
endfacet
facet normal -8.002736255335082e-16 3.3148418930546615e-16 1.0
  outer loop
    vertex 27.799999999999983 15.617691453623943 8.40181400000003
    vertex 27.558845726811974 13.399999999999965 8.40181400000003
    vertex 27.73866648732031 12.965874281184501 8.40181400000003
  endloop
endfacet
facet normal -8.002736255335082e-16 3.3148418930546615e-16 1.0
  outer loop
    vertex 27.799999999999983 15.617691453623943 8.40181400000003
    vertex 27.73866648732031 12.965874281184501 8.40181400000003
    vertex 27.799999999999983 12.499999999999966 8.40181400000003
  endloop
endfacet
facet normal -0.9914448613738107 0.13052619222005063 -1.1916926846223119e-15
  outer loop
    vertex 29.47733297464062 11.568251437630892 13.401814000000032
    vertex 29.59999999999998 12.499999999999963 8.401814000000034
    vertex 29.477332974640632 11.568251437630888 8.401814000000034
  endloop
endfacet
facet normal -0.9914448613738107 0.13052619222005063 -1.1916926846223119e-15
  outer loop
    vertex 29.59999999999998 12.499999999999963 8.401814000000034
    vertex 29.47733297464062 11.568251437630892 13.401814000000032
    vertex 29.59999999999998 12.499999999999966 13.401814000000032
  endloop
endfacet
facet normal -0.9914448613738107 -0.1305261922200502 -1.0441503226929664e-15
  outer loop
    vertex 29.59999999999998 12.499999999999966 13.401814000000032
    vertex 29.477332974640632 13.431748562369041 8.401814000000034
    vertex 29.59999999999998 12.499999999999963 8.401814000000034
  endloop
endfacet
facet normal -0.9914448613738107 -0.1305261922200502 -1.0441503226929664e-15
  outer loop
    vertex 29.477332974640632 13.431748562369041 8.401814000000034
    vertex 29.59999999999998 12.499999999999966 13.401814000000032
    vertex 29.47733297464062 13.431748562369043 13.401814000000032
  endloop
endfacet
facet normal -0.9238795325112871 -0.3826834323650893 -8.275922889291559e-16
  outer loop
    vertex 29.47733297464062 13.431748562369043 13.401814000000032
    vertex 29.117691453623962 14.299999999999965 8.401814000000034
    vertex 29.477332974640632 13.431748562369041 8.401814000000034
  endloop
endfacet
facet normal -0.9238795325112871 -0.3826834323650893 -8.275922889291559e-16
  outer loop
    vertex 29.117691453623962 14.299999999999965 8.401814000000034
    vertex 29.47733297464062 13.431748562369043 13.401814000000032
    vertex 29.117691453623962 14.299999999999969 13.401814000000032
  endloop
endfacet
facet normal -0.7933533402912325 -0.6087614290087241 -5.549817256006504e-16
  outer loop
    vertex 29.117691453623962 14.299999999999969 13.401814000000032
    vertex 28.545584412271555 15.045584412271534 8.40181400000003
    vertex 29.117691453623962 14.299999999999965 8.401814000000034
  endloop
endfacet
facet normal -0.7933533402912325 -0.6087614290087241 -5.549817256006504e-16
  outer loop
    vertex 28.545584412271555 15.045584412271534 8.40181400000003
    vertex 29.117691453623962 14.299999999999969 13.401814000000032
    vertex 28.545584412271545 15.045584412271538 13.40181400000003
  endloop
endfacet
facet normal -0.6087614290087207 -0.7933533402912352 -9.234170695939451e-16
  outer loop
    vertex 28.545584412271545 15.045584412271538 13.40181400000003
    vertex 27.799999999999983 15.617691453623943 8.40181400000003
    vertex 28.545584412271555 15.045584412271534 8.40181400000003
  endloop
endfacet
facet normal -0.6087614290087207 -0.7933533402912352 -9.234170695939451e-16
  outer loop
    vertex 27.799999999999983 15.617691453623943 8.40181400000003
    vertex 28.545584412271545 15.045584412271538 13.40181400000003
    vertex 27.799999999999972 15.617691453623946 13.40181400000003
  endloop
endfacet
facet normal -0.3826834323650893 -0.9238795325112871 8.70037050018834e-17
  outer loop
    vertex 27.799999999999972 15.617691453623946 13.40181400000003
    vertex 26.93174856236905 15.977332974640609 8.40181400000003
    vertex 27.799999999999983 15.617691453623943 8.40181400000003
  endloop
endfacet
facet normal -0.3826834323650893 -0.9238795325112871 8.70037050018834e-17
  outer loop
    vertex 26.93174856236905 15.977332974640609 8.40181400000003
    vertex 27.799999999999972 15.617691453623946 13.40181400000003
    vertex 26.93174856236905 15.977332974640612 13.40181400000003
  endloop
endfacet
facet normal -0.13052619222005096 -0.9914448613738105 4.1141838989947327e-16
  outer loop
    vertex 26.93174856236905 15.977332974640612 13.40181400000003
    vertex 25.999999999999986 16.099999999999962 8.40181400000003
    vertex 26.93174856236905 15.977332974640609 8.40181400000003
  endloop
endfacet
facet normal -0.13052619222005096 -0.9914448613738105 4.1141838989947327e-16
  outer loop
    vertex 25.999999999999986 16.099999999999962 8.40181400000003
    vertex 26.93174856236905 15.977332974640612 13.40181400000003
    vertex 25.999999999999975 16.099999999999966 13.40181400000003
  endloop
endfacet
facet normal 0.13052619222005063 -0.9914448613738107 8.53307314882948e-16
  outer loop
    vertex 25.999999999999986 16.099999999999962 8.40181400000003
    vertex 25.0682514376309 15.977332974640612 13.401814000000027
    vertex 25.068251437630913 15.977332974640609 8.401814000000027
  endloop
endfacet
facet normal 0.13052619222005063 -0.9914448613738107 8.53307314882948e-16
  outer loop
    vertex 25.0682514376309 15.977332974640612 13.401814000000027
    vertex 25.999999999999986 16.099999999999962 8.40181400000003
    vertex 25.999999999999975 16.099999999999966 13.40181400000003
  endloop
endfacet
facet normal 0.38268343236509184 -0.923879532511286 9.547332956341257e-16
  outer loop
    vertex 25.0682514376309 15.977332974640612 13.401814000000027
    vertex 24.19999999999998 15.61769145362394 8.401814000000027
    vertex 25.068251437630913 15.977332974640609 8.401814000000027
  endloop
endfacet
facet normal 0.38268343236509184 -0.923879532511286 9.547332956341257e-16
  outer loop
    vertex 24.19999999999998 15.61769145362394 8.401814000000027
    vertex 25.0682514376309 15.977332974640612 13.401814000000027
    vertex 24.19999999999998 15.617691453623943 13.401814000000027
  endloop
endfacet
facet normal 0.6087614290087222 -0.7933533402912339 7.924513894107041e-16
  outer loop
    vertex 24.19999999999998 15.617691453623943 13.401814000000027
    vertex 23.454415587728416 15.04558441227153 8.401814000000027
    vertex 24.19999999999998 15.61769145362394 8.401814000000027
  endloop
endfacet
facet normal 0.6087614290087222 -0.7933533402912339 7.924513894107041e-16
  outer loop
    vertex 23.454415587728416 15.04558441227153 8.401814000000027
    vertex 24.19999999999998 15.617691453623943 13.401814000000027
    vertex 23.45441558772841 15.045584412271534 13.401814000000027
  endloop
endfacet
facet normal 0.7933533402912347 -0.6087614290087213 1.0188660393919145e-15
  outer loop
    vertex 23.454415587728416 15.04558441227153 8.401814000000027
    vertex 22.882308546376002 14.299999999999965 13.401814000000027
    vertex 22.882308546376006 14.299999999999962 8.401814000000027
  endloop
endfacet
facet normal 0.7933533402912347 -0.6087614290087213 1.0188660393919145e-15
  outer loop
    vertex 22.882308546376002 14.299999999999965 13.401814000000027
    vertex 23.454415587728416 15.04558441227153 8.401814000000027
    vertex 23.45441558772841 15.045584412271534 13.401814000000027
  endloop
endfacet
facet normal 0.9238795325112875 -0.3826834323650882 7.363056896931357e-16
  outer loop
    vertex 22.882308546376006 14.299999999999962 8.401814000000027
    vertex 22.522667025359336 13.431748562369037 13.401814000000027
    vertex 22.52266702535934 13.431748562369036 8.401814000000027
  endloop
endfacet
facet normal 0.9238795325112875 -0.3826834323650882 7.363056896931357e-16
  outer loop
    vertex 22.522667025359336 13.431748562369037 13.401814000000027
    vertex 22.882308546376006 14.299999999999962 8.401814000000027
    vertex 22.882308546376002 14.299999999999965 13.401814000000027
  endloop
endfacet
facet normal 0.9914448613738105 -0.13052619222005096 6.320015250611698e-16
  outer loop
    vertex 22.52266702535934 13.431748562369036 8.401814000000027
    vertex 22.399999999999984 12.499999999999966 13.401814000000027
    vertex 22.399999999999988 12.499999999999963 8.401814000000027
  endloop
endfacet
facet normal 0.9914448613738105 -0.13052619222005096 6.320015250611698e-16
  outer loop
    vertex 22.399999999999984 12.499999999999966 13.401814000000027
    vertex 22.52266702535934 13.431748562369036 8.401814000000027
    vertex 22.522667025359336 13.431748562369037 13.401814000000027
  endloop
endfacet
facet normal 0.9914448613738107 0.13052619222005063 4.851895708641466e-16
  outer loop
    vertex 22.399999999999988 12.499999999999963 8.401814000000027
    vertex 22.522667025359336 11.568251437630892 13.401814000000027
    vertex 22.52266702535934 11.568251437630888 8.401814000000027
  endloop
endfacet
facet normal 0.9914448613738107 0.13052619222005063 4.851895708641466e-16
  outer loop
    vertex 22.522667025359336 11.568251437630892 13.401814000000027
    vertex 22.399999999999988 12.499999999999963 8.401814000000027
    vertex 22.399999999999984 12.499999999999966 13.401814000000027
  endloop
endfacet
facet normal 0.923879532511286 0.38268343236509184 3.080162662794342e-16
  outer loop
    vertex 22.52266702535934 11.568251437630888 8.401814000000027
    vertex 22.882308546376006 10.699999999999966 13.401814000000027
    vertex 22.88230854637601 10.699999999999964 8.401814000000027
  endloop
endfacet
facet normal 0.923879532511286 0.38268343236509184 3.080162662794342e-16
  outer loop
    vertex 22.882308546376006 10.699999999999966 13.401814000000027
    vertex 22.52266702535934 11.568251437630888 8.401814000000027
    vertex 22.522667025359336 11.568251437630892 13.401814000000027
  endloop
endfacet
facet normal 0.7933533402912338 0.6087614290087224 5.057076974435299e-16
  outer loop
    vertex 22.88230854637601 10.699999999999964 8.401814000000027
    vertex 23.454415587728416 9.954415587728395 13.40181400000003
    vertex 23.45441558772842 9.954415587728395 8.40181400000003
  endloop
endfacet
facet normal 0.7933533402912338 0.6087614290087224 5.057076974435299e-16
  outer loop
    vertex 23.454415587728416 9.954415587728395 13.40181400000003
    vertex 22.88230854637601 10.699999999999964 8.401814000000027
    vertex 22.882308546376006 10.699999999999966 13.401814000000027
  endloop
endfacet
facet normal 0.6087614290087213 0.7933533402912347 8.057701271860649e-16
  outer loop
    vertex 23.454415587728416 9.954415587728395 13.40181400000003
    vertex 24.199999999999992 9.382308546375986 8.40181400000003
    vertex 23.45441558772842 9.954415587728395 8.40181400000003
  endloop
endfacet
facet normal 0.6087614290087213 0.7933533402912347 8.057701271860649e-16
  outer loop
    vertex 24.199999999999992 9.382308546375986 8.40181400000003
    vertex 23.454415587728416 9.954415587728395 13.40181400000003
    vertex 24.19999999999998 9.382308546375988 13.40181400000003
  endloop
endfacet
facet normal 0.38268343236509056 0.9238795325112865 1.6935038153762708e-16
  outer loop
    vertex 24.19999999999998 9.382308546375988 13.40181400000003
    vertex 25.068251437630913 9.02266702535932 8.40181400000003
    vertex 24.199999999999992 9.382308546375986 8.40181400000003
  endloop
endfacet
facet normal 0.38268343236509056 0.9238795325112865 1.6935038153762708e-16
  outer loop
    vertex 25.068251437630913 9.02266702535932 8.40181400000003
    vertex 24.19999999999998 9.382308546375988 13.40181400000003
    vertex 25.068251437630913 9.02266702535932 13.40181400000003
  endloop
endfacet
facet normal 0.13052619222005138 0.9914448613738105 1.475423619293468e-16
  outer loop
    vertex 25.068251437630913 9.02266702535932 13.40181400000003
    vertex 25.999999999999986 8.899999999999967 8.40181400000003
    vertex 25.068251437630913 9.02266702535932 8.40181400000003
  endloop
endfacet
facet normal 0.13052619222005138 0.9914448613738105 1.475423619293468e-16
  outer loop
    vertex 25.999999999999986 8.899999999999967 8.40181400000003
    vertex 25.068251437630913 9.02266702535932 13.40181400000003
    vertex 25.999999999999975 8.899999999999967 13.40181400000003
  endloop
endfacet
facet normal -0.13052619222005168 0.9914448613738105 -5.738269389685403e-16
  outer loop
    vertex 25.999999999999975 8.899999999999967 13.40181400000003
    vertex 26.931748562369062 9.02266702535932 8.401814000000034
    vertex 25.999999999999986 8.899999999999967 8.40181400000003
  endloop
endfacet
facet normal -0.13052619222005168 0.9914448613738105 -5.738269389685403e-16
  outer loop
    vertex 26.931748562369062 9.02266702535932 8.401814000000034
    vertex 25.999999999999975 8.899999999999967 13.40181400000003
    vertex 26.93174856236905 9.022667025359322 13.401814000000032
  endloop
endfacet
facet normal -0.3826834323650893 0.9238795325112871 -9.521483402975575e-16
  outer loop
    vertex 26.93174856236905 9.022667025359322 13.401814000000032
    vertex 27.799999999999983 9.382308546375986 8.401814000000034
    vertex 26.931748562369062 9.02266702535932 8.401814000000034
  endloop
endfacet
facet normal -0.3826834323650893 0.9238795325112871 -9.521483402975575e-16
  outer loop
    vertex 27.799999999999983 9.382308546375986 8.401814000000034
    vertex 26.93174856236905 9.022667025359322 13.401814000000032
    vertex 27.799999999999983 9.382308546375988 13.401814000000032
  endloop
endfacet
facet normal -0.6087614290087227 0.7933533402912336 -9.145378347593943e-16
  outer loop
    vertex 27.799999999999983 9.382308546375988 13.401814000000032
    vertex 28.545584412271555 9.954415587728395 8.401814000000034
    vertex 27.799999999999983 9.382308546375986 8.401814000000034
  endloop
endfacet
facet normal -0.6087614290087227 0.7933533402912336 -9.145378347593943e-16
  outer loop
    vertex 28.545584412271555 9.954415587728395 8.401814000000034
    vertex 27.799999999999983 9.382308546375988 13.401814000000032
    vertex 28.545584412271545 9.954415587728395 13.401814000000032
  endloop
endfacet
facet normal -0.7933533402912331 0.6087614290087233 -1.0671071150279218e-15
  outer loop
    vertex 29.117691453623962 10.699999999999966 13.401814000000032
    vertex 28.545584412271555 9.954415587728395 8.401814000000034
    vertex 28.545584412271545 9.954415587728395 13.401814000000032
  endloop
endfacet
facet normal -0.7933533402912331 0.6087614290087233 -1.0671071150279218e-15
  outer loop
    vertex 28.545584412271555 9.954415587728395 8.401814000000034
    vertex 29.117691453623962 10.699999999999966 13.401814000000032
    vertex 29.117691453623962 10.699999999999964 8.401814000000034
  endloop
endfacet
facet normal -0.9238795325112871 0.3826834323650893 -1.255881712342856e-15
  outer loop
    vertex 29.117691453623962 10.699999999999966 13.401814000000032
    vertex 29.477332974640632 11.568251437630888 8.401814000000034
    vertex 29.117691453623962 10.699999999999964 8.401814000000034
  endloop
endfacet
facet normal -0.9238795325112871 0.3826834323650893 -1.255881712342856e-15
  outer loop
    vertex 29.477332974640632 11.568251437630888 8.401814000000034
    vertex 29.117691453623962 10.699999999999966 13.401814000000032
    vertex 29.47733297464062 11.568251437630892 13.401814000000032
  endloop
endfacet
endsolid mount_holder
