solid Untitled-5c005db4
facet normal 0.0 0.0 -1.0
  outer loop
    vertex -13.855284929485483 3.5385137448895803 0.0
    vertex -13.768285598050904 -3.8631996700279574 0.0
    vertex -14.299012292518206 -0.16806980220508513 0.0
  endloop
endfacet
facet normal 0.0 0.0 -1.0
  outer loop
    vertex -13.768285598050904 -3.8631996700279574 0.0
    vertex -13.855284929485483 3.5385137448895803 0.0
    vertex -12.467342795449277 7.0039534279404725 0.0
  endloop
endfacet
facet normal 0.0 0.0 -1.0
  outer loop
    vertex -13.768285598050904 -3.8631996700279574 0.0
    vertex -12.467342795449277 7.0039534279404725 0.0
    vertex -12.51515565330178 1.661777353807783 0.0
  endloop
endfacet
facet normal 0.0 0.0 -1.0
  outer loop
    vertex -13.768285598050904 -3.8631996700279574 0.0
    vertex -12.51515565330178 1.661777353807783 0.0
    vertex -12.518811693437353 -1.6340069719117387 0.0
  endloop
endfacet
facet normal 0.0 0.0 -1.0
  outer loop
    vertex -12.51515565330178 1.661777353807783 0.0
    vertex -12.467342795449277 7.0039534279404725 0.0
    vertex -11.658612437666305 4.8443142990822246 0.0
  endloop
endfacet
facet normal 0.0 0.0 -1.0
  outer loop
    vertex -11.658612437666305 4.8443142990822246 0.0
    vertex -12.467342795449277 7.0039534279404725 0.0
    vertex -10.229771853161324 9.992085259457529 0.0
  endloop
endfacet
facet normal 0.0 0.0 -1.0
  outer loop
    vertex -11.658612437666305 4.8443142990822246 0.0
    vertex -10.229771853161324 9.992085259457529 0.0
    vertex -10.007554051171885 7.696719230482111 0.0
  endloop
endfacet
facet normal 0.0 0.0 -1.0
  outer loop
    vertex -10.007554051171885 7.696719230482111 0.0
    vertex -10.229771853161324 9.992085259457529 0.0
    vertex -7.295058864577734 12.29927299324419 0.0
  endloop
endfacet
facet normal 0.0 0.0 -1.0
  outer loop
    vertex -10.007554051171885 7.696719230482111 0.0
    vertex -7.295058864577734 12.29927299324419 0.0
    vertex -7.674497394355126 10.024605465754565 0.0
  endloop
endfacet
facet normal 0.0 0.0 -1.0
  outer loop
    vertex -7.674497394355126 10.024605465754565 0.0
    vertex -7.295058864577734 12.29927299324419 0.0
    vertex -4.818436422819671 11.669331404979665 0.0
  endloop
endfacet
facet normal 0.0 0.0 -1.0
  outer loop
    vertex -4.818436422819671 11.669331404979665 0.0
    vertex -7.295058864577734 12.29927299324419 0.0
    vertex -3.8631996700279587 13.768285598050904 0.0
  endloop
endfacet
facet normal 0.0 0.0 -1.0
  outer loop
    vertex -4.818436422819671 11.669331404979665 0.0
    vertex -3.8631996700279587 13.768285598050904 0.0
    vertex -1.63400697191174 12.518811693437353 0.0
  endloop
endfacet
facet normal 0.0 0.0 -1.0
  outer loop
    vertex -1.63400697191174 12.518811693437353 0.0
    vertex -3.8631996700279587 13.768285598050904 0.0
    vertex -0.16806980220508583 14.299012292518206 0.0
  endloop
endfacet
facet normal 0.0 0.0 -1.0
  outer loop
    vertex -1.63400697191174 12.518811693437353 0.0
    vertex -0.16806980220508583 14.299012292518206 0.0
    vertex 1.661777353807781 12.515155653301782 0.0
  endloop
endfacet
facet normal 0.0 0.0 -1.0
  outer loop
    vertex 1.661777353807781 12.515155653301782 0.0
    vertex -0.16806980220508583 14.299012292518206 0.0
    vertex 3.5385137448895785 13.855284929485485 0.0
  endloop
endfacet
facet normal 0.0 0.0 -1.0
  outer loop
    vertex 1.661777353807781 12.515155653301782 0.0
    vertex 3.5385137448895785 13.855284929485485 0.0
    vertex 4.844314299082224 11.658612437666305 0.0
  endloop
endfacet
facet normal 0.0 0.0 -1.0
  outer loop
    vertex 4.844314299082224 11.658612437666305 0.0
    vertex 3.5385137448895785 13.855284929485485 0.0
    vertex 7.003953427940472 12.467342795449277 0.0
  endloop
endfacet
facet normal 0.0 0.0 -1.0
  outer loop
    vertex 4.844314299082224 11.658612437666305 0.0
    vertex 7.003953427940472 12.467342795449277 0.0
    vertex 7.696719230482111 10.007554051171885 0.0
  endloop
endfacet
facet normal 0.0 0.0 -1.0
  outer loop
    vertex 7.696719230482111 10.007554051171885 0.0
    vertex 7.003953427940472 12.467342795449277 0.0
    vertex 9.992085259457534 10.229771853161317 0.0
  endloop
endfacet
facet normal 0.0 0.0 -1.0
  outer loop
    vertex 7.696719230482111 10.007554051171885 0.0
    vertex 9.992085259457534 10.229771853161317 0.0
    vertex 10.024605465754572 7.674497394355121 0.0
  endloop
endfacet
facet normal 0.0 0.0 -1.0
  outer loop
    vertex 10.024605465754572 7.674497394355121 0.0
    vertex 9.992085259457534 10.229771853161317 0.0
    vertex 12.299272993244193 7.2950588645777295 0.0
  endloop
endfacet
facet normal 0.0 0.0 -1.0
  outer loop
    vertex 10.024605465754572 7.674497394355121 0.0
    vertex 12.299272993244193 7.2950588645777295 0.0
    vertex 11.669331404979669 4.8184364228196666 0.0
  endloop
endfacet
facet normal 0.0 0.0 -1.0
  outer loop
    vertex 11.669331404979669 4.8184364228196666 0.0
    vertex 12.299272993244193 7.2950588645777295 0.0
    vertex 12.518811693437353 1.634006971911738 0.0
  endloop
endfacet
facet normal 0.0 0.0 -1.0
  outer loop
    vertex 12.518811693437353 1.634006971911738 0.0
    vertex 12.299272993244193 7.2950588645777295 0.0
    vertex 13.768285598050904 3.863199670027955 0.0
  endloop
endfacet
facet normal 0.0 0.0 -1.0
  outer loop
    vertex -12.518811693437353 -1.6340069719117387 0.0
    vertex -12.29927299324419 -7.295058864577731 0.0
    vertex -13.768285598050904 -3.8631996700279574 0.0
  endloop
endfacet
facet normal 0.0 0.0 -1.0
  outer loop
    vertex -12.29927299324419 -7.295058864577731 0.0
    vertex -12.518811693437353 -1.6340069719117387 0.0
    vertex -11.669331404979669 -4.818436422819667 0.0
  endloop
endfacet
facet normal 0.0 0.0 -1.0
  outer loop
    vertex -12.29927299324419 -7.295058864577731 0.0
    vertex -11.669331404979669 -4.818436422819667 0.0
    vertex -9.992085259457529 -10.229771853161324 0.0
  endloop
endfacet
facet normal 0.0 0.0 -1.0
  outer loop
    vertex -9.992085259457529 -10.229771853161324 0.0
    vertex -11.669331404979669 -4.818436422819667 0.0
    vertex -10.024605465754565 -7.674497394355124 0.0
  endloop
endfacet
facet normal 0.0 0.0 -1.0
  outer loop
    vertex -9.992085259457529 -10.229771853161324 0.0
    vertex -10.024605465754565 -7.674497394355124 0.0
    vertex -7.6967192304821115 -10.007554051171883 0.0
  endloop
endfacet
facet normal 0.0 0.0 -1.0
  outer loop
    vertex -9.992085259457529 -10.229771853161324 0.0
    vertex -7.6967192304821115 -10.007554051171883 0.0
    vertex -7.0039534279404725 -12.467342795449275 0.0
  endloop
endfacet
facet normal 0.0 0.0 -1.0
  outer loop
    vertex -7.0039534279404725 -12.467342795449275 0.0
    vertex -7.6967192304821115 -10.007554051171883 0.0
    vertex -4.844314299082227 -11.658612437666303 0.0
  endloop
endfacet
facet normal 0.0 0.0 -1.0
  outer loop
    vertex -7.0039534279404725 -12.467342795449275 0.0
    vertex -4.844314299082227 -11.658612437666303 0.0
    vertex -3.538513744889585 -13.855284929485485 0.0
  endloop
endfacet
facet normal 0.0 0.0 -1.0
  outer loop
    vertex -3.538513744889585 -13.855284929485485 0.0
    vertex -4.844314299082227 -11.658612437666303 0.0
    vertex -1.6617773538077851 -12.515155653301782 0.0
  endloop
endfacet
facet normal 0.0 0.0 -1.0
  outer loop
    vertex -3.538513744889585 -13.855284929485485 0.0
    vertex -1.6617773538077851 -12.515155653301782 0.0
    vertex 0.16806980220508302 -14.299012292518206 0.0
  endloop
endfacet
facet normal 0.0 0.0 -1.0
  outer loop
    vertex 0.16806980220508302 -14.299012292518206 0.0
    vertex -1.6617773538077851 -12.515155653301782 0.0
    vertex 1.6340069719117332 -12.518811693437353 0.0
  endloop
endfacet
facet normal 0.0 0.0 -1.0
  outer loop
    vertex 0.16806980220508302 -14.299012292518206 0.0
    vertex 1.6340069719117332 -12.518811693437353 0.0
    vertex 3.8631996700279507 -13.768285598050904 0.0
  endloop
endfacet
facet normal 0.0 0.0 -1.0
  outer loop
    vertex 3.8631996700279507 -13.768285598050904 0.0
    vertex 1.6340069719117332 -12.518811693437353 0.0
    vertex 4.8184364228196666 -11.669331404979669 0.0
  endloop
endfacet
facet normal 0.0 0.0 -1.0
  outer loop
    vertex 3.8631996700279507 -13.768285598050904 0.0
    vertex 4.8184364228196666 -11.669331404979669 0.0
    vertex 7.2950588645777295 -12.299272993244193 0.0
  endloop
endfacet
facet normal 0.0 0.0 -1.0
  outer loop
    vertex 7.2950588645777295 -12.299272993244193 0.0
    vertex 4.8184364228196666 -11.669331404979669 0.0
    vertex 7.674497394355121 -10.024605465754572 0.0
  endloop
endfacet
facet normal 0.0 0.0 -1.0
  outer loop
    vertex 7.2950588645777295 -12.299272993244193 0.0
    vertex 7.674497394355121 -10.024605465754572 0.0
    vertex 10.229771853161317 -9.992085259457534 0.0
  endloop
endfacet
facet normal 0.0 0.0 -1.0
  outer loop
    vertex 10.229771853161317 -9.992085259457534 0.0
    vertex 7.674497394355121 -10.024605465754572 0.0
    vertex 10.007554051171883 -7.6967192304821115 0.0
  endloop
endfacet
facet normal 0.0 0.0 -1.0
  outer loop
    vertex 10.229771853161317 -9.992085259457534 0.0
    vertex 10.007554051171883 -7.6967192304821115 0.0
    vertex 11.658612437666303 -4.844314299082228 0.0
  endloop
endfacet
facet normal 0.0 0.0 -1.0
  outer loop
    vertex 10.229771853161317 -9.992085259457534 0.0
    vertex 11.658612437666303 -4.844314299082228 0.0
    vertex 12.467342795449275 -7.003953427940474 0.0
  endloop
endfacet
facet normal 0.0 0.0 -1.0
  outer loop
    vertex 12.467342795449275 -7.003953427940474 0.0
    vertex 11.658612437666303 -4.844314299082228 0.0
    vertex 12.51515565330178 -1.66177735380779 0.0
  endloop
endfacet
facet normal 0.0 0.0 -1.0
  outer loop
    vertex 12.467342795449275 -7.003953427940474 0.0
    vertex 12.51515565330178 -1.66177735380779 0.0
    vertex 13.855284929485483 -3.5385137448895856 0.0
  endloop
endfacet
facet normal 0.0 0.0 -1.0
  outer loop
    vertex 13.855284929485483 -3.5385137448895856 0.0
    vertex 12.51515565330178 -1.66177735380779 0.0
    vertex 12.518811693437353 1.634006971911738 0.0
  endloop
endfacet
facet normal 0.0 0.0 -1.0
  outer loop
    vertex 13.855284929485483 -3.5385137448895856 0.0
    vertex 12.518811693437353 1.634006971911738 0.0
    vertex 13.768285598050904 3.863199670027955 0.0
  endloop
endfacet
facet normal 0.0 0.0 -1.0
  outer loop
    vertex 13.855284929485483 -3.5385137448895856 0.0
    vertex 13.768285598050904 3.863199670027955 0.0
    vertex 14.299012292518206 0.16806980220507667 0.0
  endloop
endfacet
facet normal -0.0 -0.0 1.0
  outer loop
    vertex -12.29927299324419 -7.295058864577731 28.0
    vertex -12.518811693437353 -1.6340069719117387 28.0
    vertex -13.768285598050904 -3.8631996700279574 28.0
  endloop
endfacet
facet normal -0.0 -0.0 1.0
  outer loop
    vertex -12.518811693437353 -1.6340069719117387 28.0
    vertex -12.29927299324419 -7.295058864577731 28.0
    vertex -11.669331404979669 -4.818436422819667 28.0
  endloop
endfacet
facet normal -0.0 -0.0 1.0
  outer loop
    vertex -11.669331404979669 -4.818436422819667 28.0
    vertex -12.29927299324419 -7.295058864577731 28.0
    vertex -9.992085259457529 -10.229771853161324 28.0
  endloop
endfacet
facet normal -0.0 -0.0 1.0
  outer loop
    vertex -11.669331404979669 -4.818436422819667 28.0
    vertex -9.992085259457529 -10.229771853161324 28.0
    vertex -10.024605465754565 -7.674497394355124 28.0
  endloop
endfacet
facet normal -0.0 -0.0 1.0
  outer loop
    vertex -10.024605465754565 -7.674497394355124 28.0
    vertex -9.992085259457529 -10.229771853161324 28.0
    vertex -7.6967192304821115 -10.007554051171883 28.0
  endloop
endfacet
facet normal -0.0 -0.0 1.0
  outer loop
    vertex -7.6967192304821115 -10.007554051171883 28.0
    vertex -9.992085259457529 -10.229771853161324 28.0
    vertex -7.0039534279404725 -12.467342795449275 28.0
  endloop
endfacet
facet normal -0.0 -0.0 1.0
  outer loop
    vertex -7.6967192304821115 -10.007554051171883 28.0
    vertex -7.0039534279404725 -12.467342795449275 28.0
    vertex -4.844314299082227 -11.658612437666303 28.0
  endloop
endfacet
facet normal -0.0 -0.0 1.0
  outer loop
    vertex -4.844314299082227 -11.658612437666303 28.0
    vertex -7.0039534279404725 -12.467342795449275 28.0
    vertex -3.538513744889585 -13.855284929485485 28.0
  endloop
endfacet
facet normal -0.0 -0.0 1.0
  outer loop
    vertex -4.844314299082227 -11.658612437666303 28.0
    vertex -3.538513744889585 -13.855284929485485 28.0
    vertex -1.6617773538077851 -12.515155653301782 28.0
  endloop
endfacet
facet normal -0.0 -0.0 1.0
  outer loop
    vertex -1.6617773538077851 -12.515155653301782 28.0
    vertex -3.538513744889585 -13.855284929485485 28.0
    vertex 0.16806980220508302 -14.299012292518206 28.0
  endloop
endfacet
facet normal -0.0 -0.0 1.0
  outer loop
    vertex -1.6617773538077851 -12.515155653301782 28.0
    vertex 0.16806980220508302 -14.299012292518206 28.0
    vertex 1.6340069719117332 -12.518811693437353 28.0
  endloop
endfacet
facet normal -0.0 -0.0 1.0
  outer loop
    vertex 1.6340069719117332 -12.518811693437353 28.0
    vertex 0.16806980220508302 -14.299012292518206 28.0
    vertex 3.8631996700279507 -13.768285598050904 28.0
  endloop
endfacet
facet normal -0.0 -0.0 1.0
  outer loop
    vertex 1.6340069719117332 -12.518811693437353 28.0
    vertex 3.8631996700279507 -13.768285598050904 28.0
    vertex 4.8184364228196666 -11.669331404979669 28.0
  endloop
endfacet
facet normal -0.0 -0.0 1.0
  outer loop
    vertex 4.8184364228196666 -11.669331404979669 28.0
    vertex 3.8631996700279507 -13.768285598050904 28.0
    vertex 7.2950588645777295 -12.299272993244193 28.0
  endloop
endfacet
facet normal -0.0 -0.0 1.0
  outer loop
    vertex 4.8184364228196666 -11.669331404979669 28.0
    vertex 7.2950588645777295 -12.299272993244193 28.0
    vertex 7.674497394355121 -10.024605465754572 28.0
  endloop
endfacet
facet normal -0.0 -0.0 1.0
  outer loop
    vertex 7.674497394355121 -10.024605465754572 28.0
    vertex 7.2950588645777295 -12.299272993244193 28.0
    vertex 10.229771853161317 -9.992085259457534 28.0
  endloop
endfacet
facet normal -0.0 -0.0 1.0
  outer loop
    vertex 7.674497394355121 -10.024605465754572 28.0
    vertex 10.229771853161317 -9.992085259457534 28.0
    vertex 10.007554051171883 -7.6967192304821115 28.0
  endloop
endfacet
facet normal -0.0 -0.0 1.0
  outer loop
    vertex 10.007554051171883 -7.6967192304821115 28.0
    vertex 10.229771853161317 -9.992085259457534 28.0
    vertex 11.658612437666303 -4.844314299082228 28.0
  endloop
endfacet
facet normal -0.0 -0.0 1.0
  outer loop
    vertex 11.658612437666303 -4.844314299082228 28.0
    vertex 10.229771853161317 -9.992085259457534 28.0
    vertex 12.467342795449275 -7.003953427940474 28.0
  endloop
endfacet
facet normal -0.0 -0.0 1.0
  outer loop
    vertex 11.658612437666303 -4.844314299082228 28.0
    vertex 12.467342795449275 -7.003953427940474 28.0
    vertex 12.51515565330178 -1.66177735380779 28.0
  endloop
endfacet
facet normal -0.0 -0.0 1.0
  outer loop
    vertex 12.51515565330178 -1.66177735380779 28.0
    vertex 12.467342795449275 -7.003953427940474 28.0
    vertex 13.855284929485483 -3.5385137448895856 28.0
  endloop
endfacet
facet normal -0.0 -0.0 1.0
  outer loop
    vertex 12.51515565330178 -1.66177735380779 28.0
    vertex 13.855284929485483 -3.5385137448895856 28.0
    vertex 12.518811693437353 1.634006971911738 28.0
  endloop
endfacet
facet normal -0.0 -0.0 1.0
  outer loop
    vertex 12.518811693437353 1.634006971911738 28.0
    vertex 13.855284929485483 -3.5385137448895856 28.0
    vertex 13.768285598050904 3.863199670027955 28.0
  endloop
endfacet
facet normal -0.0 -0.0 1.0
  outer loop
    vertex 13.768285598050904 3.863199670027955 28.0
    vertex 13.855284929485483 -3.5385137448895856 28.0
    vertex 14.299012292518206 0.16806980220507667 28.0
  endloop
endfacet
facet normal -0.0 -0.0 1.0
  outer loop
    vertex -13.768285598050904 -3.8631996700279574 28.0
    vertex -13.855284929485483 3.5385137448895803 28.0
    vertex -14.299012292518206 -0.16806980220508513 28.0
  endloop
endfacet
facet normal -0.0 -0.0 1.0
  outer loop
    vertex -13.855284929485483 3.5385137448895803 28.0
    vertex -13.768285598050904 -3.8631996700279574 28.0
    vertex -12.467342795449277 7.0039534279404725 28.0
  endloop
endfacet
facet normal -0.0 -0.0 1.0
  outer loop
    vertex -12.467342795449277 7.0039534279404725 28.0
    vertex -13.768285598050904 -3.8631996700279574 28.0
    vertex -12.51515565330178 1.661777353807783 28.0
  endloop
endfacet
facet normal -0.0 -0.0 1.0
  outer loop
    vertex -12.51515565330178 1.661777353807783 28.0
    vertex -13.768285598050904 -3.8631996700279574 28.0
    vertex -12.518811693437353 -1.6340069719117387 28.0
  endloop
endfacet
facet normal -0.0 -0.0 1.0
  outer loop
    vertex -12.467342795449277 7.0039534279404725 28.0
    vertex -12.51515565330178 1.661777353807783 28.0
    vertex -11.658612437666305 4.8443142990822246 28.0
  endloop
endfacet
facet normal -0.0 -0.0 1.0
  outer loop
    vertex -12.467342795449277 7.0039534279404725 28.0
    vertex -11.658612437666305 4.8443142990822246 28.0
    vertex -10.229771853161324 9.992085259457529 28.0
  endloop
endfacet
facet normal -0.0 -0.0 1.0
  outer loop
    vertex -10.229771853161324 9.992085259457529 28.0
    vertex -11.658612437666305 4.8443142990822246 28.0
    vertex -10.007554051171885 7.696719230482111 28.0
  endloop
endfacet
facet normal -0.0 -0.0 1.0
  outer loop
    vertex -10.229771853161324 9.992085259457529 28.0
    vertex -10.007554051171885 7.696719230482111 28.0
    vertex -7.295058864577734 12.29927299324419 28.0
  endloop
endfacet
facet normal -0.0 -0.0 1.0
  outer loop
    vertex -7.295058864577734 12.29927299324419 28.0
    vertex -10.007554051171885 7.696719230482111 28.0
    vertex -7.674497394355126 10.024605465754565 28.0
  endloop
endfacet
facet normal -0.0 -0.0 1.0
  outer loop
    vertex -7.295058864577734 12.29927299324419 28.0
    vertex -7.674497394355126 10.024605465754565 28.0
    vertex -4.818436422819671 11.669331404979665 28.0
  endloop
endfacet
facet normal -0.0 -0.0 1.0
  outer loop
    vertex -7.295058864577734 12.29927299324419 28.0
    vertex -4.818436422819671 11.669331404979665 28.0
    vertex -3.8631996700279587 13.768285598050904 28.0
  endloop
endfacet
facet normal -0.0 -0.0 1.0
  outer loop
    vertex -3.8631996700279587 13.768285598050904 28.0
    vertex -4.818436422819671 11.669331404979665 28.0
    vertex -1.63400697191174 12.518811693437353 28.0
  endloop
endfacet
facet normal -0.0 -0.0 1.0
  outer loop
    vertex -3.8631996700279587 13.768285598050904 28.0
    vertex -1.63400697191174 12.518811693437353 28.0
    vertex -0.16806980220508583 14.299012292518206 28.0
  endloop
endfacet
facet normal -0.0 -0.0 1.0
  outer loop
    vertex -0.16806980220508583 14.299012292518206 28.0
    vertex -1.63400697191174 12.518811693437353 28.0
    vertex 1.661777353807781 12.515155653301782 28.0
  endloop
endfacet
facet normal -0.0 -0.0 1.0
  outer loop
    vertex -0.16806980220508583 14.299012292518206 28.0
    vertex 1.661777353807781 12.515155653301782 28.0
    vertex 3.5385137448895785 13.855284929485485 28.0
  endloop
endfacet
facet normal -0.0 -0.0 1.0
  outer loop
    vertex 3.5385137448895785 13.855284929485485 28.0
    vertex 1.661777353807781 12.515155653301782 28.0
    vertex 4.844314299082224 11.658612437666305 28.0
  endloop
endfacet
facet normal -0.0 -0.0 1.0
  outer loop
    vertex 3.5385137448895785 13.855284929485485 28.0
    vertex 4.844314299082224 11.658612437666305 28.0
    vertex 7.003953427940472 12.467342795449277 28.0
  endloop
endfacet
facet normal -0.0 -0.0 1.0
  outer loop
    vertex 7.003953427940472 12.467342795449277 28.0
    vertex 4.844314299082224 11.658612437666305 28.0
    vertex 7.696719230482111 10.007554051171885 28.0
  endloop
endfacet
facet normal -0.0 -0.0 1.0
  outer loop
    vertex 7.003953427940472 12.467342795449277 28.0
    vertex 7.696719230482111 10.007554051171885 28.0
    vertex 9.992085259457534 10.229771853161317 28.0
  endloop
endfacet
facet normal -0.0 -0.0 1.0
  outer loop
    vertex 9.992085259457534 10.229771853161317 28.0
    vertex 7.696719230482111 10.007554051171885 28.0
    vertex 10.024605465754572 7.674497394355121 28.0
  endloop
endfacet
facet normal -0.0 -0.0 1.0
  outer loop
    vertex 9.992085259457534 10.229771853161317 28.0
    vertex 10.024605465754572 7.674497394355121 28.0
    vertex 12.299272993244193 7.2950588645777295 28.0
  endloop
endfacet
facet normal -0.0 -0.0 1.0
  outer loop
    vertex 12.299272993244193 7.2950588645777295 28.0
    vertex 10.024605465754572 7.674497394355121 28.0
    vertex 11.669331404979669 4.8184364228196666 28.0
  endloop
endfacet
facet normal -0.0 -0.0 1.0
  outer loop
    vertex 12.299272993244193 7.2950588645777295 28.0
    vertex 11.669331404979669 4.8184364228196666 28.0
    vertex 12.518811693437353 1.634006971911738 28.0
  endloop
endfacet
facet normal -0.0 -0.0 1.0
  outer loop
    vertex 12.299272993244193 7.2950588645777295 28.0
    vertex 12.518811693437353 1.634006971911738 28.0
    vertex 13.768285598050904 3.863199670027955 28.0
  endloop
endfacet
facet normal 0.37179852120566315 0.928313449018855 0.0
  outer loop
    vertex 3.5385137448895785 13.855284929485485 28.0
    vertex 7.003953427940472 12.467342795449277 0.0
    vertex 3.5385137448895785 13.855284929485485 0.0
  endloop
endfacet
facet normal 0.37179852120566315 0.928313449018855 0.0
  outer loop
    vertex 7.003953427940472 12.467342795449277 0.0
    vertex 3.5385137448895785 13.855284929485485 28.0
    vertex 7.003953427940472 12.467342795449277 28.0
  endloop
endfacet
facet normal 0.5993949942395213 0.8004533970698136 0.0
  outer loop
    vertex 7.003953427940472 12.467342795449277 28.0
    vertex 9.992085259457534 10.229771853161317 0.0
    vertex 7.003953427940472 12.467342795449277 0.0
  endloop
endfacet
facet normal 0.5993949942395213 0.8004533970698136 0.0
  outer loop
    vertex 9.992085259457534 10.229771853161317 0.0
    vertex 7.003953427940472 12.467342795449277 28.0
    vertex 9.992085259457534 10.229771853161317 28.0
  endloop
endfacet
facet normal 0.7861436889630191 0.6180437689222471 0.0
  outer loop
    vertex 9.992085259457534 10.229771853161317 0.0
    vertex 12.299272993244193 7.2950588645777295 28.0
    vertex 12.299272993244193 7.2950588645777295 0.0
  endloop
endfacet
facet normal 0.7861436889630191 0.6180437689222471 0.0
  outer loop
    vertex 12.299272993244193 7.2950588645777295 28.0
    vertex 9.992085259457534 10.229771853161317 0.0
    vertex 9.992085259457534 10.229771853161317 28.0
  endloop
endfacet
facet normal 0.9193179904475596 0.39351547928824954 0.0
  outer loop
    vertex 12.299272993244193 7.2950588645777295 0.0
    vertex 13.768285598050904 3.863199670027955 28.0
    vertex 13.768285598050904 3.863199670027955 0.0
  endloop
endfacet
facet normal 0.9193179904475596 0.39351547928824954 0.0
  outer loop
    vertex 13.768285598050904 3.863199670027955 28.0
    vertex 12.299272993244193 7.2950588645777295 0.0
    vertex 12.299272993244193 7.2950588645777295 28.0
  endloop
endfacet
facet normal 0.9898422901279103 0.14216976005583584 0.0
  outer loop
    vertex 13.768285598050904 3.863199670027955 0.0
    vertex 14.299012292518206 0.16806980220507667 28.0
    vertex 14.299012292518206 0.16806980220507667 0.0
  endloop
endfacet
facet normal 0.9898422901279103 0.14216976005583584 0.0
  outer loop
    vertex 14.299012292518206 0.16806980220507667 28.0
    vertex 13.768285598050904 3.863199670027955 0.0
    vertex 13.768285598050904 3.863199670027955 28.0
  endloop
endfacet
facet normal 0.9929104735277714 -0.11886459337774623 0.0
  outer loop
    vertex 14.299012292518206 0.16806980220507667 0.0
    vertex 13.855284929485483 -3.5385137448895856 28.0
    vertex 13.855284929485483 -3.5385137448895856 0.0
  endloop
endfacet
facet normal 0.9929104735277714 -0.11886459337774623 0.0
  outer loop
    vertex 13.855284929485483 -3.5385137448895856 28.0
    vertex 14.299012292518206 0.16806980220507667 0.0
    vertex 14.299012292518206 0.16806980220507667 28.0
  endloop
endfacet
facet normal 0.9283134490188549 -0.3717985212056632 0.0
  outer loop
    vertex 13.855284929485483 -3.5385137448895856 0.0
    vertex 12.467342795449275 -7.003953427940474 28.0
    vertex 12.467342795449275 -7.003953427940474 0.0
  endloop
endfacet
facet normal 0.9283134490188549 -0.3717985212056632 0.0
  outer loop
    vertex 12.467342795449275 -7.003953427940474 28.0
    vertex 13.855284929485483 -3.5385137448895856 0.0
    vertex 13.855284929485483 -3.5385137448895856 28.0
  endloop
endfacet
facet normal 0.8004533970698133 -0.5993949942395216 0.0
  outer loop
    vertex 12.467342795449275 -7.003953427940474 0.0
    vertex 10.229771853161317 -9.992085259457534 28.0
    vertex 10.229771853161317 -9.992085259457534 0.0
  endloop
endfacet
facet normal 0.8004533970698133 -0.5993949942395216 0.0
  outer loop
    vertex 10.229771853161317 -9.992085259457534 28.0
    vertex 12.467342795449275 -7.003953427940474 0.0
    vertex 12.467342795449275 -7.003953427940474 28.0
  endloop
endfacet
facet normal 0.6180437689222473 -0.7861436889630191 0.0
  outer loop
    vertex 10.229771853161317 -9.992085259457534 28.0
    vertex 7.2950588645777295 -12.299272993244193 0.0
    vertex 10.229771853161317 -9.992085259457534 0.0
  endloop
endfacet
facet normal 0.6180437689222473 -0.7861436889630191 0.0
  outer loop
    vertex 7.2950588645777295 -12.299272993244193 0.0
    vertex 10.229771853161317 -9.992085259457534 28.0
    vertex 7.2950588645777295 -12.299272993244193 28.0
  endloop
endfacet
facet normal 0.3935154792882491 -0.9193179904475598 0.0
  outer loop
    vertex 7.2950588645777295 -12.299272993244193 28.0
    vertex 3.8631996700279507 -13.768285598050904 0.0
    vertex 7.2950588645777295 -12.299272993244193 0.0
  endloop
endfacet
facet normal 0.3935154792882491 -0.9193179904475598 0.0
  outer loop
    vertex 3.8631996700279507 -13.768285598050904 0.0
    vertex 7.2950588645777295 -12.299272993244193 28.0
    vertex 3.8631996700279507 -13.768285598050904 28.0
  endloop
endfacet
facet normal 0.14216976005583626 -0.9898422901279103 0.0
  outer loop
    vertex 3.8631996700279507 -13.768285598050904 28.0
    vertex 0.16806980220508302 -14.299012292518206 0.0
    vertex 3.8631996700279507 -13.768285598050904 0.0
  endloop
endfacet
facet normal 0.14216976005583626 -0.9898422901279103 0.0
  outer loop
    vertex 0.16806980220508302 -14.299012292518206 0.0
    vertex 3.8631996700279507 -13.768285598050904 28.0
    vertex 0.16806980220508302 -14.299012292518206 28.0
  endloop
endfacet
facet normal -0.11886459337774531 -0.9929104735277716 -0.0
  outer loop
    vertex 0.16806980220508302 -14.299012292518206 28.0
    vertex -3.538513744889585 -13.855284929485485 0.0
    vertex 0.16806980220508302 -14.299012292518206 0.0
  endloop
endfacet
facet normal -0.11886459337774531 -0.9929104735277716 -0.0
  outer loop
    vertex -3.538513744889585 -13.855284929485485 0.0
    vertex 0.16806980220508302 -14.299012292518206 28.0
    vertex -3.538513744889585 -13.855284929485485 28.0
  endloop
endfacet
facet normal -0.3717985212056639 -0.9283134490188546 -0.0
  outer loop
    vertex -3.538513744889585 -13.855284929485485 28.0
    vertex -7.0039534279404725 -12.467342795449275 0.0
    vertex -3.538513744889585 -13.855284929485485 0.0
  endloop
endfacet
facet normal -0.3717985212056639 -0.9283134490188546 -0.0
  outer loop
    vertex -7.0039534279404725 -12.467342795449275 0.0
    vertex -3.538513744889585 -13.855284929485485 28.0
    vertex -7.0039534279404725 -12.467342795449275 28.0
  endloop
endfacet
facet normal -0.5993949942395207 -0.8004533970698138 -0.0
  outer loop
    vertex -7.0039534279404725 -12.467342795449275 28.0
    vertex -9.992085259457529 -10.229771853161324 0.0
    vertex -7.0039534279404725 -12.467342795449275 0.0
  endloop
endfacet
facet normal -0.5993949942395207 -0.8004533970698138 -0.0
  outer loop
    vertex -9.992085259457529 -10.229771853161324 0.0
    vertex -7.0039534279404725 -12.467342795449275 28.0
    vertex -9.992085259457529 -10.229771853161324 28.0
  endloop
endfacet
facet normal -0.7861436889630193 -0.6180437689222468 -0.0
  outer loop
    vertex -12.29927299324419 -7.295058864577731 28.0
    vertex -9.992085259457529 -10.229771853161324 0.0
    vertex -9.992085259457529 -10.229771853161324 28.0
  endloop
endfacet
facet normal -0.7861436889630193 -0.6180437689222468 -0.0
  outer loop
    vertex -9.992085259457529 -10.229771853161324 0.0
    vertex -12.29927299324419 -7.295058864577731 28.0
    vertex -12.29927299324419 -7.295058864577731 0.0
  endloop
endfacet
facet normal -0.9193179904475595 -0.3935154792882503 -0.0
  outer loop
    vertex -13.768285598050904 -3.8631996700279574 28.0
    vertex -12.29927299324419 -7.295058864577731 0.0
    vertex -12.29927299324419 -7.295058864577731 28.0
  endloop
endfacet
facet normal -0.9193179904475595 -0.3935154792882503 -0.0
  outer loop
    vertex -12.29927299324419 -7.295058864577731 0.0
    vertex -13.768285598050904 -3.8631996700279574 28.0
    vertex -13.768285598050904 -3.8631996700279574 0.0
  endloop
endfacet
facet normal -0.9898422901279103 -0.1421697600558361 -0.0
  outer loop
    vertex -14.299012292518206 -0.16806980220508513 28.0
    vertex -13.768285598050904 -3.8631996700279574 0.0
    vertex -13.768285598050904 -3.8631996700279574 28.0
  endloop
endfacet
facet normal -0.9898422901279103 -0.1421697600558361 -0.0
  outer loop
    vertex -13.768285598050904 -3.8631996700279574 0.0
    vertex -14.299012292518206 -0.16806980220508513 28.0
    vertex -14.299012292518206 -0.16806980220508513 0.0
  endloop
endfacet
facet normal -0.9929104735277715 0.11886459337774614 0.0
  outer loop
    vertex -13.855284929485483 3.5385137448895803 28.0
    vertex -14.299012292518206 -0.16806980220508513 0.0
    vertex -14.299012292518206 -0.16806980220508513 28.0
  endloop
endfacet
facet normal -0.9929104735277715 0.11886459337774614 0.0
  outer loop
    vertex -14.299012292518206 -0.16806980220508513 0.0
    vertex -13.855284929485483 3.5385137448895803 28.0
    vertex -13.855284929485483 3.5385137448895803 0.0
  endloop
endfacet
facet normal -0.9283134490188552 0.3717985212056625 0.0
  outer loop
    vertex -12.467342795449277 7.0039534279404725 28.0
    vertex -13.855284929485483 3.5385137448895803 0.0
    vertex -13.855284929485483 3.5385137448895803 28.0
  endloop
endfacet
facet normal -0.9283134490188552 0.3717985212056625 0.0
  outer loop
    vertex -13.855284929485483 3.5385137448895803 0.0
    vertex -12.467342795449277 7.0039534279404725 28.0
    vertex -12.467342795449277 7.0039534279404725 0.0
  endloop
endfacet
facet normal -0.8004533970698134 0.5993949942395211 0.0
  outer loop
    vertex -10.229771853161324 9.992085259457529 28.0
    vertex -12.467342795449277 7.0039534279404725 0.0
    vertex -12.467342795449277 7.0039534279404725 28.0
  endloop
endfacet
facet normal -0.8004533970698134 0.5993949942395211 0.0
  outer loop
    vertex -12.467342795449277 7.0039534279404725 0.0
    vertex -10.229771853161324 9.992085259457529 28.0
    vertex -10.229771853161324 9.992085259457529 0.0
  endloop
endfacet
facet normal -0.6180437689222474 0.7861436889630189 0.0
  outer loop
    vertex -10.229771853161324 9.992085259457529 28.0
    vertex -7.295058864577734 12.29927299324419 0.0
    vertex -10.229771853161324 9.992085259457529 0.0
  endloop
endfacet
facet normal -0.6180437689222474 0.7861436889630189 0.0
  outer loop
    vertex -7.295058864577734 12.29927299324419 0.0
    vertex -10.229771853161324 9.992085259457529 28.0
    vertex -7.295058864577734 12.29927299324419 28.0
  endloop
endfacet
facet normal -0.3935154792882501 0.9193179904475594 0.0
  outer loop
    vertex -7.295058864577734 12.29927299324419 28.0
    vertex -3.8631996700279587 13.768285598050904 0.0
    vertex -7.295058864577734 12.29927299324419 0.0
  endloop
endfacet
facet normal -0.3935154792882501 0.9193179904475594 0.0
  outer loop
    vertex -3.8631996700279587 13.768285598050904 0.0
    vertex -7.295058864577734 12.29927299324419 28.0
    vertex -3.8631996700279587 13.768285598050904 28.0
  endloop
endfacet
facet normal -0.1421697600558361 0.9898422901279104 0.0
  outer loop
    vertex -3.8631996700279587 13.768285598050904 28.0
    vertex -0.16806980220508583 14.299012292518206 0.0
    vertex -3.8631996700279587 13.768285598050904 0.0
  endloop
endfacet
facet normal -0.1421697600558361 0.9898422901279104 0.0
  outer loop
    vertex -0.16806980220508583 14.299012292518206 0.0
    vertex -3.8631996700279587 13.768285598050904 28.0
    vertex -0.16806980220508583 14.299012292518206 28.0
  endloop
endfacet
facet normal 0.11886459337774541 0.9929104735277715 0.0
  outer loop
    vertex -0.16806980220508583 14.299012292518206 28.0
    vertex 3.5385137448895785 13.855284929485485 0.0
    vertex -0.16806980220508583 14.299012292518206 0.0
  endloop
endfacet
facet normal 0.11886459337774541 0.9929104735277715 0.0
  outer loop
    vertex 3.5385137448895785 13.855284929485485 0.0
    vertex -0.16806980220508583 14.299012292518206 28.0
    vertex 3.5385137448895785 13.855284929485485 28.0
  endloop
endfacet
facet normal 0.8654702172433031 -0.5009603807336762 0.0
  outer loop
    vertex -10.007554051171885 7.696719230482111 0.0
    vertex -11.658612437666305 4.8443142990822246 28.0
    vertex -11.658612437666305 4.8443142990822246 0.0
  endloop
endfacet
facet normal 0.8654702172433031 -0.5009603807336762 0.0
  outer loop
    vertex -11.658612437666305 4.8443142990822246 28.0
    vertex -10.007554051171885 7.696719230482111 0.0
    vertex -10.007554051171885 7.696719230482111 28.0
  endloop
endfacet
facet normal 0.9656381220950025 -0.2598903945066792 0.0
  outer loop
    vertex -11.658612437666305 4.8443142990822246 0.0
    vertex -12.51515565330178 1.661777353807783 28.0
    vertex -12.51515565330178 1.661777353807783 0.0
  endloop
endfacet
facet normal 0.9656381220950025 -0.2598903945066792 0.0
  outer loop
    vertex -12.51515565330178 1.661777353807783 28.0
    vertex -11.658612437666305 4.8443142990822246 0.0
    vertex -11.658612437666305 4.8443142990822246 28.0
  endloop
endfacet
facet normal 0.9999993847183755 -0.0011093073832370848 0.0
  outer loop
    vertex -12.51515565330178 1.661777353807783 0.0
    vertex -12.518811693437353 -1.6340069719117387 28.0
    vertex -12.518811693437353 -1.6340069719117387 0.0
  endloop
endfacet
facet normal 0.9999993847183755 -0.0011093073832370848 0.0
  outer loop
    vertex -12.518811693437353 -1.6340069719117387 28.0
    vertex -12.51515565330178 1.661777353807783 0.0
    vertex -12.51515565330178 1.661777353807783 28.0
  endloop
endfacet
facet normal 0.9662123418503111 0.2577473772051571 0.0
  outer loop
    vertex -12.518811693437353 -1.6340069719117387 0.0
    vertex -11.669331404979669 -4.818436422819667 28.0
    vertex -11.669331404979669 -4.818436422819667 0.0
  endloop
endfacet
facet normal 0.9662123418503111 0.2577473772051571 0.0
  outer loop
    vertex -11.669331404979669 -4.818436422819667 28.0
    vertex -12.518811693437353 -1.6340069719117387 0.0
    vertex -12.518811693437353 -1.6340069719117387 28.0
  endloop
endfacet
facet normal 0.8665795246265395 0.49903900398469975 0.0
  outer loop
    vertex -11.669331404979669 -4.818436422819667 0.0
    vertex -10.024605465754565 -7.674497394355124 28.0
    vertex -10.024605465754565 -7.674497394355124 0.0
  endloop
endfacet
facet normal 0.8665795246265395 0.49903900398469975 0.0
  outer loop
    vertex -10.024605465754565 -7.674497394355124 28.0
    vertex -11.669331404979669 -4.818436422819667 0.0
    vertex -11.669331404979669 -4.818436422819667 28.0
  endloop
endfacet
facet normal 0.7078907448898456 0.7063219473436314 0.0
  outer loop
    vertex -10.024605465754565 -7.674497394355124 0.0
    vertex -7.6967192304821115 -10.007554051171883 28.0
    vertex -7.6967192304821115 -10.007554051171883 0.0
  endloop
endfacet
facet normal 0.7078907448898456 0.7063219473436314 0.0
  outer loop
    vertex -7.6967192304821115 -10.007554051171883 28.0
    vertex -10.024605465754565 -7.674497394355124 0.0
    vertex -10.024605465754565 -7.674497394355124 28.0
  endloop
endfacet
facet normal 0.5009603807336764 0.865470217243303 0.0
  outer loop
    vertex -7.6967192304821115 -10.007554051171883 28.0
    vertex -4.844314299082227 -11.658612437666303 0.0
    vertex -7.6967192304821115 -10.007554051171883 0.0
  endloop
endfacet
facet normal 0.5009603807336764 0.865470217243303 0.0
  outer loop
    vertex -4.844314299082227 -11.658612437666303 0.0
    vertex -7.6967192304821115 -10.007554051171883 28.0
    vertex -4.844314299082227 -11.658612437666303 28.0
  endloop
endfacet
facet normal 0.25989039450667994 0.9656381220950023 0.0
  outer loop
    vertex -4.844314299082227 -11.658612437666303 28.0
    vertex -1.6617773538077851 -12.515155653301782 0.0
    vertex -4.844314299082227 -11.658612437666303 0.0
  endloop
endfacet
facet normal 0.25989039450667994 0.9656381220950023 0.0
  outer loop
    vertex -1.6617773538077851 -12.515155653301782 0.0
    vertex -4.844314299082227 -11.658612437666303 28.0
    vertex -1.6617773538077851 -12.515155653301782 28.0
  endloop
endfacet
facet normal 0.001109307383236658 0.9999993847183755 0.0
  outer loop
    vertex -1.6617773538077851 -12.515155653301782 28.0
    vertex 1.6340069719117332 -12.518811693437353 0.0
    vertex -1.6617773538077851 -12.515155653301782 0.0
  endloop
endfacet
facet normal 0.001109307383236658 0.9999993847183755 0.0
  outer loop
    vertex 1.6340069719117332 -12.518811693437353 0.0
    vertex -1.6617773538077851 -12.515155653301782 28.0
    vertex 1.6340069719117332 -12.518811693437353 28.0
  endloop
endfacet
facet normal -0.25774737720515645 0.9662123418503114 0.0
  outer loop
    vertex 1.6340069719117332 -12.518811693437353 28.0
    vertex 4.8184364228196666 -11.669331404979669 0.0
    vertex 1.6340069719117332 -12.518811693437353 0.0
  endloop
endfacet
facet normal -0.25774737720515645 0.9662123418503114 0.0
  outer loop
    vertex 4.8184364228196666 -11.669331404979669 0.0
    vertex 1.6340069719117332 -12.518811693437353 28.0
    vertex 4.8184364228196666 -11.669331404979669 28.0
  endloop
endfacet
facet normal -0.4990390039846991 0.8665795246265398 0.0
  outer loop
    vertex 4.8184364228196666 -11.669331404979669 28.0
    vertex 7.674497394355121 -10.024605465754572 0.0
    vertex 4.8184364228196666 -11.669331404979669 0.0
  endloop
endfacet
facet normal -0.4990390039846991 0.8665795246265398 0.0
  outer loop
    vertex 7.674497394355121 -10.024605465754572 0.0
    vertex 4.8184364228196666 -11.669331404979669 28.0
    vertex 7.674497394355121 -10.024605465754572 28.0
  endloop
endfacet
facet normal -0.7063219473436316 0.7078907448898454 0.0
  outer loop
    vertex 7.674497394355121 -10.024605465754572 28.0
    vertex 10.007554051171883 -7.6967192304821115 0.0
    vertex 7.674497394355121 -10.024605465754572 0.0
  endloop
endfacet
facet normal -0.7063219473436316 0.7078907448898454 0.0
  outer loop
    vertex 10.007554051171883 -7.6967192304821115 0.0
    vertex 7.674497394355121 -10.024605465754572 28.0
    vertex 10.007554051171883 -7.6967192304821115 28.0
  endloop
endfacet
facet normal -0.865470217243303 0.5009603807336765 0.0
  outer loop
    vertex 11.658612437666303 -4.844314299082228 28.0
    vertex 10.007554051171883 -7.6967192304821115 0.0
    vertex 10.007554051171883 -7.6967192304821115 28.0
  endloop
endfacet
facet normal -0.865470217243303 0.5009603807336765 0.0
  outer loop
    vertex 10.007554051171883 -7.6967192304821115 0.0
    vertex 11.658612437666303 -4.844314299082228 28.0
    vertex 11.658612437666303 -4.844314299082228 0.0
  endloop
endfacet
facet normal -0.9656381220950022 0.25989039450667983 0.0
  outer loop
    vertex 12.51515565330178 -1.66177735380779 28.0
    vertex 11.658612437666303 -4.844314299082228 0.0
    vertex 11.658612437666303 -4.844314299082228 28.0
  endloop
endfacet
facet normal -0.9656381220950022 0.25989039450667983 0.0
  outer loop
    vertex 11.658612437666303 -4.844314299082228 0.0
    vertex 12.51515565330178 -1.66177735380779 28.0
    vertex 12.51515565330178 -1.66177735380779 0.0
  endloop
endfacet
facet normal -0.9999993847183755 0.0011093073832370826 0.0
  outer loop
    vertex 12.518811693437353 1.634006971911738 28.0
    vertex 12.51515565330178 -1.66177735380779 0.0
    vertex 12.51515565330178 -1.66177735380779 28.0
  endloop
endfacet
facet normal -0.9999993847183755 0.0011093073832370826 0.0
  outer loop
    vertex 12.51515565330178 -1.66177735380779 0.0
    vertex 12.518811693437353 1.634006971911738 28.0
    vertex 12.518811693437353 1.634006971911738 0.0
  endloop
endfacet
facet normal -0.9662123418503111 -0.25774737720515717 -0.0
  outer loop
    vertex 11.669331404979669 4.8184364228196666 28.0
    vertex 12.518811693437353 1.634006971911738 0.0
    vertex 12.518811693437353 1.634006971911738 28.0
  endloop
endfacet
facet normal -0.9662123418503111 -0.25774737720515717 -0.0
  outer loop
    vertex 12.518811693437353 1.634006971911738 0.0
    vertex 11.669331404979669 4.8184364228196666 28.0
    vertex 11.669331404979669 4.8184364228196666 0.0
  endloop
endfacet
facet normal -0.86657952462654 -0.49903900398469875 -0.0
  outer loop
    vertex 10.024605465754572 7.674497394355121 28.0
    vertex 11.669331404979669 4.8184364228196666 0.0
    vertex 11.669331404979669 4.8184364228196666 28.0
  endloop
endfacet
facet normal -0.86657952462654 -0.49903900398469875 -0.0
  outer loop
    vertex 11.669331404979669 4.8184364228196666 0.0
    vertex 10.024605465754572 7.674497394355121 28.0
    vertex 10.024605465754572 7.674497394355121 0.0
  endloop
endfacet
facet normal -0.7078907448898454 -0.7063219473436317 -0.0
  outer loop
    vertex 7.696719230482111 10.007554051171885 28.0
    vertex 10.024605465754572 7.674497394355121 0.0
    vertex 10.024605465754572 7.674497394355121 28.0
  endloop
endfacet
facet normal -0.7078907448898454 -0.7063219473436317 -0.0
  outer loop
    vertex 10.024605465754572 7.674497394355121 0.0
    vertex 7.696719230482111 10.007554051171885 28.0
    vertex 7.696719230482111 10.007554051171885 0.0
  endloop
endfacet
facet normal -0.5009603807336761 -0.8654702172433031 -0.0
  outer loop
    vertex 7.696719230482111 10.007554051171885 28.0
    vertex 4.844314299082224 11.658612437666305 0.0
    vertex 7.696719230482111 10.007554051171885 0.0
  endloop
endfacet
facet normal -0.5009603807336761 -0.8654702172433031 -0.0
  outer loop
    vertex 4.844314299082224 11.658612437666305 0.0
    vertex 7.696719230482111 10.007554051171885 28.0
    vertex 4.844314299082224 11.658612437666305 28.0
  endloop
endfacet
facet normal -0.25989039450667945 -0.9656381220950023 -0.0
  outer loop
    vertex 4.844314299082224 11.658612437666305 28.0
    vertex 1.661777353807781 12.515155653301782 0.0
    vertex 4.844314299082224 11.658612437666305 0.0
  endloop
endfacet
facet normal -0.25989039450667945 -0.9656381220950023 -0.0
  outer loop
    vertex 1.661777353807781 12.515155653301782 0.0
    vertex 4.844314299082224 11.658612437666305 28.0
    vertex 1.661777353807781 12.515155653301782 28.0
  endloop
endfacet
facet normal -0.0011093073832366572 -0.9999993847183755 -0.0
  outer loop
    vertex 1.661777353807781 12.515155653301782 28.0
    vertex -1.63400697191174 12.518811693437353 0.0
    vertex 1.661777353807781 12.515155653301782 0.0
  endloop
endfacet
facet normal -0.0011093073832366572 -0.9999993847183755 -0.0
  outer loop
    vertex -1.63400697191174 12.518811693437353 0.0
    vertex 1.661777353807781 12.515155653301782 28.0
    vertex -1.63400697191174 12.518811693437353 28.0
  endloop
endfacet
facet normal 0.25774737720515783 -0.966212341850311 0.0
  outer loop
    vertex -1.63400697191174 12.518811693437353 28.0
    vertex -4.818436422819671 11.669331404979665 0.0
    vertex -1.63400697191174 12.518811693437353 0.0
  endloop
endfacet
facet normal 0.25774737720515783 -0.966212341850311 0.0
  outer loop
    vertex -4.818436422819671 11.669331404979665 0.0
    vertex -1.63400697191174 12.518811693437353 28.0
    vertex -4.818436422819671 11.669331404979665 28.0
  endloop
endfacet
facet normal 0.49903900398469914 -0.8665795246265396 0.0
  outer loop
    vertex -4.818436422819671 11.669331404979665 28.0
    vertex -7.674497394355126 10.024605465754565 0.0
    vertex -4.818436422819671 11.669331404979665 0.0
  endloop
endfacet
facet normal 0.49903900398469914 -0.8665795246265396 0.0
  outer loop
    vertex -7.674497394355126 10.024605465754565 0.0
    vertex -4.818436422819671 11.669331404979665 28.0
    vertex -7.674497394355126 10.024605465754565 28.0
  endloop
endfacet
facet normal 0.7063219473436316 -0.7078907448898454 0.0
  outer loop
    vertex -7.674497394355126 10.024605465754565 28.0
    vertex -10.007554051171885 7.696719230482111 0.0
    vertex -7.674497394355126 10.024605465754565 0.0
  endloop
endfacet
facet normal 0.7063219473436316 -0.7078907448898454 0.0
  outer loop
    vertex -10.007554051171885 7.696719230482111 0.0
    vertex -7.674497394355126 10.024605465754565 28.0
    vertex -10.007554051171885 7.696719230482111 28.0
  endloop
endfacet
endsolid Untitled-5c005db4
